<svg id="Layer_1" data-name="Layer 1" xmlns="http://www.w3.org/2000/svg" viewBox="0 0 437.97 71.39"><defs><style>.cls-1{fill:#9d2136;}.cls-2{fill:#fff;}.cls-3{fill:#a32036;}.cls-4{fill:#c97d31;}.cls-5{fill:#101820;}.cls-6{fill:#6aaae4;}</style></defs><path class="cls-1" d="M500.65,299.62a3.29,3.29,0,1,1,3.31-3.29A3.27,3.27,0,0,1,500.65,299.62Z" transform="translate(-69.06 -240.11)"/><path class="cls-2" d="M500.65,294.05a2.29,2.29,0,1,1-2.32,2.28,2.28,2.28,0,0,1,2.32-2.28m0,4.19a1.91,1.91,0,1,0-1.86-1.91,1.84,1.84,0,0,0,1.86,1.91m.12-3.22c.63,0,.94.23.94.75a.69.69,0,0,1-.69.72l.75,1.16h-.45l-.69-1.14h-.46v1.14h-.4V295h1m-.6,1.15h.48c.33,0,.64,0,.64-.43s-.3-.38-.58-.38h-.54v.81m.48-4.12a4.31,4.31,0,0,0-4.32,4.28,4.32,4.32,0,1,0,4.32-4.28Z" transform="translate(-69.06 -240.11)"/><polygon class="cls-1" points="128.29 59.36 128.29 41.58 116.74 41.58 116.74 59.36 103.87 59.36 103.87 14.63 116.74 14.63 116.74 30.18 128.29 30.18 128.29 14.63 141.17 14.63 141.17 59.36 128.29 59.36"/><path class="cls-2" d="M209.22,255.74v42.72H198.35V280.68H184.8v17.78H173.92V255.74H184.8v15.55h13.55V255.74h10.87m2-2H196.35v15.55H186.8V253.74H171.92v46.72H186.8V282.68h9.55v17.78h14.87V253.74Z" transform="translate(-69.06 -240.11)"/><path class="cls-1" d="M245.77,299.46V266.94H257.4v4.31a11.24,11.24,0,0,1,9.09-4.95l.85,0,.93.07v11.44l-1,0a21.66,21.66,0,0,0-5.43.69,6.71,6.71,0,0,0-3.5,2v18.93Z" transform="translate(-69.06 -240.11)"/><path class="cls-2" d="M266.49,267.3l.78,0v9.53a22.67,22.67,0,0,0-5.68.72,7.56,7.56,0,0,0-4.24,2.59v18.29H246.77V267.94h9.63v7c2-4.36,5.4-7.64,10.09-7.64m0-2a11.66,11.66,0,0,0-8.09,3.31v-2.67H244.77v34.52h14.58V280.92a6.24,6.24,0,0,1,2.76-1.41,21.08,21.08,0,0,1,5.18-.65l2,0V265.47l-1.85-.14-.93,0Z" transform="translate(-69.06 -240.11)"/><path class="cls-1" d="M267.76,299.46V266.34h11.63v4.91a11.24,11.24,0,0,1,9.09-4.95l.85,0,.93.07v11.44l-1,0a21.66,21.66,0,0,0-5.43.69,6.71,6.71,0,0,0-3.5,2v18.93Z" transform="translate(-69.06 -240.11)"/><path class="cls-2" d="M288.48,267.3l.78,0v9.53a22.67,22.67,0,0,0-5.68.72,7.56,7.56,0,0,0-4.24,2.59v18.29H268.76V267.34h9.63v7.6c2-4.36,5.4-7.64,10.09-7.64m0-2a11.66,11.66,0,0,0-8.09,3.31v-3.27H266.76v35.12h14.58V280.92a6.24,6.24,0,0,1,2.76-1.41,21.08,21.08,0,0,1,5.18-.65l2,0V265.47l-1.85-.14-.93,0Z" transform="translate(-69.06 -240.11)"/><rect class="cls-1" x="221.01" y="26.24" width="11.94" height="33.12"/><path class="cls-2" d="M301,267.34v31.12h-9.93V267.34H301m2-2H289.07v35.12H303V265.34Z" transform="translate(-69.06 -240.11)"/><path class="cls-1" d="M309.16,285.73a10.54,10.54,0,0,1-5.25-4.37l0-.07,0-.06a9.92,9.92,0,0,1,.43-8.05,11.75,11.75,0,0,1,7-6.07,21.91,21.91,0,0,1,6-.85,18.6,18.6,0,0,1,12.36,4.5l.65.56-4.9,7.76-2.86-1.7-.13-.22a6.25,6.25,0,0,0-5.2-3.43c-3.73,0-6.76,4.23-6.76,9.42a12.51,12.51,0,0,0,.1,1.54l.21,1.74Z" transform="translate(-69.06 -240.11)"/><path class="cls-2" d="M317.29,267.26A17.7,17.7,0,0,1,329,271.52l-3.93,6.21-1.8-1.08c-1.43-2.39-3.61-3.92-6.06-3.92-4.29,0-7.76,4.67-7.76,10.42a12.86,12.86,0,0,0,.11,1.66,9.54,9.54,0,0,1-4.78-3.95c-2.06-5.2,1.58-11.23,6.83-12.79a20.73,20.73,0,0,1,5.68-.81m0-2h0a23,23,0,0,0-6.23.88,12.78,12.78,0,0,0-7.68,6.6,10.91,10.91,0,0,0-.46,8.86l.05.13.08.13a11.41,11.41,0,0,0,5.71,4.78L312,288l-.42-3.47a12.43,12.43,0,0,1-.09-1.42c0-4.56,2.64-8.42,5.76-8.42a5.29,5.29,0,0,1,4.34,2.94l.26.44.44.26,1,.57.84.51,1.67,1,1-1.64,3.93-6.22.91-1.45L330.3,270a19.57,19.57,0,0,0-13-4.74Z" transform="translate(-69.06 -240.11)"/><path class="cls-1" d="M318.1,300.11c-5.55,0-11.58-2.11-15-5.26l-.59-.54L307,286.5l.89.58a31.76,31.76,0,0,0,4.12,2.3l.25.12.16.22a6,6,0,0,0,4.82,2.85c3.73,0,6.76-4.22,6.76-9.42a12.64,12.64,0,0,0-.12-1.68l-.23-1.77,1.63.73c6,2.7,7.8,7,5.47,13.13l0,.1c-2.11,4.16-6.58,6.45-12.58,6.45Z" transform="translate(-69.06 -240.11)"/><path class="cls-2" d="M324.84,281.34c4.66,2.09,7.4,5.4,5,11.86-2.13,4.21-6.76,5.91-11.69,5.91-5.36,0-11.08-2-14.32-5l3.53-6.2a33.68,33.68,0,0,0,4.26,2.38,7,7,0,0,0,5.64,3.28c4.28,0,7.76-4.66,7.76-10.42a13.41,13.41,0,0,0-.13-1.81m-2.44-3.29.46,3.55a12.4,12.4,0,0,1,.11,1.55c0,4.57-2.64,8.42-5.76,8.42a5,5,0,0,1-4-2.43l-.32-.44-.49-.23a30.53,30.53,0,0,1-4-2.23l-1.78-1.16-1.05,1.84-3.53,6.2-.79,1.39,1.17,1.08c3.65,3.35,9.81,5.52,15.68,5.52a18.19,18.19,0,0,0,7.74-1.56,11.9,11.9,0,0,0,5.73-5.44l.05-.1,0-.1c2.51-6.63.5-11.48-6-14.39l-3.26-1.47Z" transform="translate(-69.06 -240.11)"/><polygon class="cls-1" points="275.95 59.36 275.95 26.02 264.48 26.02 264.48 14.63 299.59 14.63 299.59 26.02 288.18 26.02 288.18 59.36 275.95 59.36"/><path class="cls-2" d="M367.65,255.74v9.39H356.24v33.33H346V265.13H334.53v-9.39h33.12m2-2H332.53v13.39H344v33.33h14.24V267.13h11.41V253.74Z" transform="translate(-69.06 -240.11)"/><path class="cls-1" d="M412.28,300.06c-7.57,0-13.79-3.91-16.23-10.22a18,18,0,0,1,.36-13.75,15.44,15.44,0,0,1,8.6-8.37,19.86,19.86,0,0,1,7.49-1.39c5.36,0,10.35,1.91,13.34,5.13,3.61,3.65,5.22,9.26,4.27,15l-.14.83h-8.18l.32-1.24a9.23,9.23,0,0,0,.29-2.23,8.54,8.54,0,1,0-8.53,8.75,8.52,8.52,0,0,0,7.46-4.51l.28-.52h8.13l-.38,1.28c-2.06,7-8.22,11.24-16.47,11.24Z" transform="translate(-69.06 -240.11)"/><path class="cls-2" d="M412.5,267.33c4.72,0,9.59,1.57,12.61,4.81,3.61,3.65,4.84,9.15,4,14.15h-6.05a10.07,10.07,0,0,0,.32-2.47,9.54,9.54,0,1,0-9.53,9.75,9.5,9.5,0,0,0,8.34-5h6.19c-2.06,7-8.24,10.52-15.51,10.52h-.61c-6.7,0-12.89-3.38-15.3-9.58-3.06-7.78.27-17.74,8.39-20.83a18.92,18.92,0,0,1,7.13-1.32m0-2a20.92,20.92,0,0,0-7.87,1.46,16.49,16.49,0,0,0-9.14,8.89,19,19,0,0,0-.37,14.53c2.6,6.69,9.17,10.85,17.16,10.85h.61c8.72,0,15.24-4.47,17.43-12l.24-.81h.26l.28-1.67a18.27,18.27,0,0,0-4.55-15.87c-3.18-3.4-8.43-5.42-14.05-5.42Zm1.37,26.24a7.76,7.76,0,1,1,7.53-7.75,8.1,8.1,0,0,1-.26,2l-.25,1-.44.81a7.52,7.52,0,0,1-6.58,4Z" transform="translate(-69.06 -240.11)"/><path class="cls-1" d="M465.47,300.06c-7.56,0-13.78-3.91-16.23-10.22a18,18,0,0,1,.36-13.75,15.46,15.46,0,0,1,8.61-8.37,19.77,19.77,0,0,1,7.48-1.39c5.36,0,10.35,1.91,13.34,5.13,3.62,3.64,5.22,9.26,4.27,15l-.13.83h-6.9l.35-1.27a8.13,8.13,0,0,0,.32-2.2c0-4.83-4.23-8.76-9.42-8.76s-9.42,3.93-9.42,8.76,4.22,8.75,9.42,8.75a9.56,9.56,0,0,0,8.25-4.54l.29-.49h6.87l-.38,1.28c-2.06,7-8.22,11.24-16.47,11.24Z" transform="translate(-69.06 -240.11)"/><path class="cls-2" d="M465.69,267.33c4.73,0,9.59,1.57,12.61,4.81,3.61,3.65,4.84,9.15,4,14.15h-4.74a8.83,8.83,0,0,0,.36-2.47c0-5.39-4.67-9.76-10.42-9.76s-10.42,4.37-10.42,9.76,4.66,9.75,10.42,9.75a10.53,10.53,0,0,0,9.11-5h5c-2.06,7-8.23,10.52-15.51,10.52h-.61c-6.7,0-12.89-3.37-15.3-9.58-3.05-7.78.28-17.74,8.39-20.83a18.92,18.92,0,0,1,7.13-1.32m0-2a20.91,20.91,0,0,0-7.86,1.46,16.5,16.5,0,0,0-9.15,8.89,19,19,0,0,0-.37,14.53c2.6,6.69,9.17,10.85,17.16,10.85h.61c8.72,0,15.24-4.47,17.43-12l.24-.81H484l.28-1.67a18.27,18.27,0,0,0-4.55-15.87c-3.18-3.4-8.43-5.42-14.05-5.42Zm1.83,26.24c-4.65,0-8.42-3.48-8.42-7.75s3.77-7.76,8.42-7.76,8.42,3.48,8.42,7.76a7.32,7.32,0,0,1-.28,1.93l-.27,1-.48.81a8.55,8.55,0,0,1-7.39,4.05Z" transform="translate(-69.06 -240.11)"/><path class="cls-1" d="M377.06,300.06c-7.56,0-13.78-3.91-16.23-10.21a18,18,0,0,1,.36-13.76,15.46,15.46,0,0,1,8.61-8.37,19.81,19.81,0,0,1,7.48-1.39c5.36,0,10.35,1.91,13.34,5.13,3.62,3.65,5.22,9.26,4.28,15l-.14.83H386l.26-1.21a11.17,11.17,0,0,0,.25-2.26c0-5.32-3.83-9.64-8.54-9.64s-8.53,4.32-8.53,9.64,3.83,9.64,8.53,9.64a8.45,8.45,0,0,0,7.62-5.33l.27-.59h8.68l-.37,1.28c-2.07,7-8.23,11.24-16.48,11.24Z" transform="translate(-69.06 -240.11)"/><path class="cls-2" d="M377.28,267.33c4.73,0,9.59,1.57,12.61,4.81,3.62,3.65,4.84,9.15,4,14.15h-6.69a11.76,11.76,0,0,0,.27-2.47c0-5.88-4.27-10.64-9.54-10.64s-9.53,4.76-9.53,10.64,4.27,10.64,9.53,10.64a9.5,9.5,0,0,0,8.54-5.92h6.7c-2.07,7-8.24,10.52-15.52,10.52h-.61c-6.7,0-12.89-3.37-15.3-9.58-3.05-7.78.28-17.74,8.39-20.83a19,19,0,0,1,7.13-1.32m0-2a20.91,20.91,0,0,0-7.86,1.46,16.45,16.45,0,0,0-9.14,8.89,19,19,0,0,0-.38,14.53c2.6,6.69,9.17,10.85,17.16,10.85h.61c8.72,0,15.24-4.47,17.43-12l.24-.81h.26l.28-1.67a18.27,18.27,0,0,0-4.55-15.87c-3.18-3.4-8.43-5.42-14.05-5.42Zm.67,27.13c-4.15,0-7.53-3.88-7.53-8.64s3.38-8.64,7.53-8.64,7.54,3.87,7.54,8.64a10,10,0,0,1-.23,2.06l-.21,1-.39.88a7.48,7.48,0,0,1-6.71,4.74Z" transform="translate(-69.06 -240.11)"/><path class="cls-1" d="M439.92,300.12c-4.44,0-7.75-1.88-9.09-5.17-.79-1.46-1-7-.81-28.31.05-4.79.09-8.92,0-9.66l-.13-1.12h12.7v9.8h6.11v9.79H442.6v11A2.12,2.12,0,0,0,443,288a2.27,2.27,0,0,0,1.61.51,6.8,6.8,0,0,0,2.36-.48l1.3-.5.06,1.39c.06,1.45.26,6.32.27,8.31v.49l-.39.3c-2.18,1.71-5.65,2.07-8.17,2.07Z" transform="translate(-69.06 -240.11)"/><path class="cls-2" d="M441.6,256.86v9.8h6.12v7.79H441.6v12c-.13,2.34,1.31,3.13,3,3.13a8,8,0,0,0,2.72-.54c.06,1.55.26,6.34.27,8.27-2.05,1.6-5.59,1.85-7.55,1.85h-.13c-3.39,0-6.85-1.25-8.19-4.6-1.44-1.31-.42-35.11-.71-37.66H441.6m2-2H428.78l.25,2.23c.08.68,0,5.19,0,9.54-.24,23.64.09,27.6,1,28.93,1.56,3.54,5.15,5.56,9.92,5.56h.15c2.66,0,6.36-.4,8.76-2.28l.78-.6v-1c0-2-.21-6.88-.28-8.34l-.11-2.79-2.61,1a5.8,5.8,0,0,1-2,.41,1.33,1.33,0,0,1-.88-.2,1.23,1.23,0,0,1-.13-.82V276.45h6.12V264.66H443.6v-9.8Z" transform="translate(-69.06 -240.11)"/><path class="cls-1" d="M483.53,299.48V266.36h11.63v4.92a12.1,12.1,0,0,1,3.13-3.13,10.15,10.15,0,0,1,5.89-1.8c.31,0,.62,0,.93,0l.91.08v11.37l-1,0c-3.36.11-7,.51-8.94,2.68v18.93Z" transform="translate(-69.06 -240.11)"/><path class="cls-2" d="M504.18,267.35c.28,0,.57,0,.84,0v9.49c-3.59.11-7.78.55-9.91,3.32v18.29H484.53V267.36h9.63V275a14.87,14.87,0,0,1,4.67-6,9.22,9.22,0,0,1,5.35-1.64m0-2a11.14,11.14,0,0,0-6.47,2,10.28,10.28,0,0,0-1.55,1.24v-3.22H482.53v35.12h14.58V281c1.73-1.65,5-2,8-2.08l1.94-.06V265.55l-1.82-.16c-.34,0-.68,0-1,0Z" transform="translate(-69.06 -240.11)"/><path class="cls-1" d="M225.26,300a14.73,14.73,0,0,1-14-10.16c-2.78-7.7-.49-18.5,7.37-22.28a13.08,13.08,0,0,1,5.74-1.28,12.39,12.39,0,0,1,6,1.45,9.43,9.43,0,0,1,2.89,2.36v-3.15h12.58V299.4H233.27v-2.7a9.37,9.37,0,0,1-7.46,3.3Zm2.61-25.82a8.09,8.09,0,1,0,8.31,8.08A8.21,8.21,0,0,0,227.87,274.18Z" transform="translate(-69.06 -240.11)"/><path class="cls-2" d="M224.36,267.28a11.35,11.35,0,0,1,5.47,1.32,10.49,10.49,0,0,1,4.38,4.92v-5.58h10.58V298.4H234.27v-5.06c-1.79,3.58-4.33,5.66-8.46,5.66h-.55a13.83,13.83,0,0,1-13.07-9.48c-2.62-7.28-.55-17.49,6.86-21.06a12.05,12.05,0,0,1,5.31-1.18m3.51,24.07a9.09,9.09,0,1,0-9.32-9.09,9.2,9.2,0,0,0,9.32,9.09m-3.51-26.07h0a13.82,13.82,0,0,0-6.21,1.4c-8.31,4-10.77,15.39-7.84,23.52A15.72,15.72,0,0,0,225.26,301h.55a10.54,10.54,0,0,0,6.46-2v1.39h14.52V265.94H232.21v1.81a10.78,10.78,0,0,0-1.43-.91,13.2,13.2,0,0,0-6.42-1.56Zm3.51,24.07a7.09,7.09,0,1,1,7.31-7.09,7.21,7.21,0,0,1-7.31,7.09Z" transform="translate(-69.06 -240.11)"/><path class="cls-1" d="M295.6,265.71a7.09,7.09,0,0,1-.79,0,5.4,5.4,0,0,1,.07-10.79,5.2,5.2,0,0,1,.72,0c3.38,0,5.78,2.23,5.85,5.41a5.48,5.48,0,0,1-5.85,5.46Z" transform="translate(-69.06 -240.11)"/><path class="cls-2" d="M295.6,255.84c2.61,0,4.79,1.6,4.85,4.44s-2.24,4.43-4.85,4.43a5.43,5.43,0,0,1-.69,0,4.4,4.4,0,0,1,0-8.79,5.53,5.53,0,0,1,.69,0m0-2a7.81,7.81,0,0,0-.83,0,6.4,6.4,0,0,0,0,12.79,7.81,7.81,0,0,0,.83,0,6.51,6.51,0,0,0,6.85-6.39v-.09a6.51,6.51,0,0,0-6.85-6.39Z" transform="translate(-69.06 -240.11)"/><path class="cls-2" d="M218.55,282.26a9.32,9.32,0,1,0,9.32-9.08A9.21,9.21,0,0,0,218.55,282.26Z" transform="translate(-69.06 -240.11)"/><path class="cls-2" d="M317.21,293.57c4.28,0,7.76-4.66,7.76-10.42a13.41,13.41,0,0,0-.13-1.81,12.38,12.38,0,0,0-1.57-4.69c-1.43-2.39-3.61-3.92-6.06-3.92-4.29,0-7.76,4.67-7.76,10.42a12.86,12.86,0,0,0,.11,1.66,12,12,0,0,0,2,5.48A7,7,0,0,0,317.21,293.57Z" transform="translate(-69.06 -240.11)"/><path class="cls-2" d="M378,273.18c-5.26,0-9.53,4.76-9.53,10.64s4.27,10.64,9.53,10.64a9.5,9.5,0,0,0,8.54-5.92,11.86,11.86,0,0,0,1-4.72C387.49,277.94,383.22,273.18,378,273.18Z" transform="translate(-69.06 -240.11)"/><path class="cls-2" d="M413.87,274.06a9.76,9.76,0,0,0,0,19.51,9.5,9.5,0,0,0,8.34-5,9.72,9.72,0,0,0,.87-2.25,10.07,10.07,0,0,0,.32-2.47A9.65,9.65,0,0,0,413.87,274.06Z" transform="translate(-69.06 -240.11)"/><path class="cls-2" d="M467.52,274.06c-5.76,0-10.42,4.37-10.42,9.76s4.66,9.75,10.42,9.75a10.53,10.53,0,0,0,9.11-5,9.11,9.11,0,0,0,.95-2.25,8.83,8.83,0,0,0,.36-2.47C477.94,278.43,473.27,274.06,467.52,274.06Z" transform="translate(-69.06 -240.11)"/><polygon class="cls-3" points="115.74 15.63 104.87 15.63 104.87 58.36 115.74 58.36 115.74 40.58 129.29 40.58 129.29 58.36 140.17 58.36 140.17 15.63 129.29 15.63 129.29 31.18 115.74 31.18 115.74 15.63"/><path class="cls-1" d="M261.59,277.58a22.67,22.67,0,0,1,5.68-.72v-9.53c-5.1-.38-8.78,3-10.87,7.61v-7h-9.63v30.52h10.58V280.17A7.56,7.56,0,0,1,261.59,277.58Z" transform="translate(-69.06 -240.11)"/><path class="cls-1" d="M283.58,277.58a22.67,22.67,0,0,1,5.68-.72v-9.53c-5.1-.38-8.78,3-10.87,7.61v-7.6h-9.63v31.12h10.58V280.17A7.56,7.56,0,0,1,283.58,277.58Z" transform="translate(-69.06 -240.11)"/><rect class="cls-1" x="222.01" y="27.24" width="9.94" height="31.12"/><path class="cls-1" d="M329.79,293.2c3.38-8.91-3.11-11.82-10.87-13.82-2.57-.8-4.74-.93-4.95-3.06a1.66,1.66,0,0,1,.82-1.52c3.57-1.39,6.82.88,10.28,2.93l3.93-6.21a18.51,18.51,0,0,0-17.39-3.45c-5.25,1.56-8.89,7.59-6.83,12.79,2.18,3.8,6.59,4.59,10.94,6,2.48.87,4.51,1.06,4.76,3.13,0,.83-.47,1.83-2.72,1.83-3.58,0-7.19-1.83-10.45-3.95l-3.53,6.2C310,299.85,325.34,302,329.79,293.2Z" transform="translate(-69.06 -240.11)"/><polygon class="cls-1" points="265.48 25.02 276.95 25.02 276.95 58.36 287.18 58.36 287.18 25.02 298.59 25.02 298.59 15.63 265.48 15.63 265.48 25.02"/><path class="cls-1" d="M425.11,272.14c-4.63-5-13.6-6-19.74-3.49-8.12,3.09-11.45,13.05-8.39,20.83,2.45,6.31,8.81,9.69,15.64,9.58,7.39.08,13.7-3.41,15.78-10.52h-9.54c-2.37,4.86-11.92,4.06-11.72-2.25h22C430,281.29,428.72,275.79,425.11,272.14Zm-18.23,8.09a5.57,5.57,0,1,1,11.13,0Z" transform="translate(-69.06 -240.11)"/><path class="cls-1" d="M478.3,272.14c-4.63-5-13.6-6-19.74-3.49-8.11,3.09-11.44,13.05-8.39,20.83,2.45,6.31,8.82,9.69,15.65,9.58,7.39.08,13.69-3.41,15.77-10.52h-9.54c-2.37,4.86-11.92,4.06-11.71-2.25h22C483.14,281.29,481.92,275.79,478.3,272.14Zm-18.23,8.09a5.57,5.57,0,1,1,11.13,0Z" transform="translate(-69.06 -240.11)"/><path class="cls-1" d="M389.89,272.14c-4.63-5-13.6-6-19.74-3.49-8.11,3.09-11.44,13.05-8.39,20.83,2.45,6.31,8.82,9.69,15.65,9.58,7.39.08,13.69-3.41,15.78-10.52h-9.55c-2.37,4.86-11.92,4.06-11.71-2.25h22C394.73,281.29,393.51,275.79,389.89,272.14Zm-18.22,8.09a5.56,5.56,0,1,1,11.12,0Z" transform="translate(-69.06 -240.11)"/><path class="cls-1" d="M441.6,256.86H431c.29,2.55-.73,36.35.71,37.66,1.35,3.4,4.89,4.63,8.32,4.6,1.95,0,5.49-.25,7.55-1.85,0-1.93-.21-6.72-.27-8.27-2.47.95-5.93,1-5.73-2.59v-12h6.12v-7.79H441.6Z" transform="translate(-69.06 -240.11)"/><path class="cls-1" d="M498.83,269a14.87,14.87,0,0,0-4.67,6v-7.59h-9.63v31.12h10.58V280.19c2.13-2.77,6.32-3.21,9.91-3.32v-9.49A9.38,9.38,0,0,0,498.83,269Z" transform="translate(-69.06 -240.11)"/><path class="cls-1" d="M229.83,268.6a12.29,12.29,0,0,0-10.78-.14c-7.41,3.57-9.49,13.78-6.86,21.06a13.8,13.8,0,0,0,13.3,9.47c4.32.12,6.95-2,8.78-5.65v5.06h10.52V267.94H234.21v5.58A10.49,10.49,0,0,0,229.83,268.6Zm4.41,12.33,0,.13v5.69c-3.59,6-12.42,3.72-12.22-3.43C222.06,275.28,231.21,273.28,234.24,280.93Z" transform="translate(-69.06 -240.11)"/><path class="cls-1" d="M300.45,260.28c-.07-3.09-2.64-4.71-5.54-4.4a4.4,4.4,0,0,0,0,8.79C297.81,265,300.38,263.36,300.45,260.28Z" transform="translate(-69.06 -240.11)"/><path class="cls-2" d="M164.12,271.75l-.05-.06c-4.1-5.08-14.71-16.68-24.78-14.83l-.07,0c-2.38.54-5.42,2.14-9.22,4.87.05-.83.07-1.63.05-2.4-.09-3.85-1-6.86-2.75-9a4.34,4.34,0,0,0-2.92-1.55,9.78,9.78,0,0,0,.55-3.9c-.09-1.31-.53-2.9-2.11-3a9.38,9.38,0,0,0-6.1,1.63l-.32-.43c-1.16-1.58-3.43-3.15-5.21-3a2.53,2.53,0,0,0-2.09,1.3c-.69,1.27-.75,3.89-.66,6.09a11.18,11.18,0,0,0-10.16.24c-2.35,1.41-5.93,5.12-4.48,14.31a29.65,29.65,0,0,0-9.11-7.18c-4.4-2.14-8.63-2.44-12.21-.84a5.66,5.66,0,0,0-3.12,4c-1.32,5.19,1.43,15.59,13.09,29.25a108.59,108.59,0,0,0,14.7,14.28c8.34,6.58,15.92,9.92,22.52,9.92h.53c3.33-.09,5.94-1.14,7.35-3,3-3.85,3.22-8.62.76-13.55,3.34,2,6.95,3.24,10.66,2.75,5.86-.66,11.93-4.88,18.05-12.53a68.4,68.4,0,0,0,7.54-11.56l.4-1.18Z" transform="translate(-69.06 -240.11)"/><path class="cls-1" d="M111.15,276.31c-.72-4.72-3.34-10.12-4-11.73a1.42,1.42,0,0,1,.21-1.66,1.3,1.3,0,0,1,1.6,0c2.34,1.58,8,6.26,11.36,9.18l2.09-1.83c2-4.5,2.51-9.94.17-13.44-1.24-1.86-3.41-2-5.51-1.59-4,1.22-5.48,2.8-5.48,2.8s-7.59-8.43-11.78-2.51l-.23.35C97.34,263.49,102.57,276.83,111.15,276.31Z" transform="translate(-69.06 -240.11)"/><path class="cls-4" d="M106.19,292.83a1.76,1.76,0,0,1-1-.67,1.27,1.27,0,0,1-.14-1.46,35,35,0,0,0,3.72-4.72l-.1-.05c-1.61-.86-4.77-2.45-6.38-3.32-1.07,0-2,.06-2.68.12a6.31,6.31,0,0,1-1.3,0,2.87,2.87,0,0,1-1-2.44c0-.16.17-.64,1.26-.7h0a22.76,22.76,0,0,1,3.39.09c0-1.09-.71-1.78-2.12-2.84a49.08,49.08,0,0,0-6.83-4.3c-.22-.12-1.22-.55-2.4-1.07a31.89,31.89,0,0,0-6-.11,1.48,1.48,0,0,1,.39-1,3.51,3.51,0,0,1,1.2-.87c-.41-.21-.66-.37-.64-.42.53-1.82-.4-3.72-1.61-5.21a16.3,16.3,0,0,0-7.12-5,5,5,0,0,0-2.94-.34,3,3,0,0,0-.36.12c-1.34,1.79-.7,5,1.88,9.57,7.56,13.31,16.29,23.49,25.93,30.25,8.22,5.76,15.05,7.55,18.65,8.11a3.84,3.84,0,0,0,2.6-2c.65-1.44,1-7.89-7.46-14.58a38.37,38.37,0,0,1-8.46,2.79A1.37,1.37,0,0,1,106.19,292.83Z" transform="translate(-69.06 -240.11)"/><path class="cls-5" d="M113.78,255.06c.09.13.61,0,1.37-.25a16.63,16.63,0,0,0,6.39-4.65,7.46,7.46,0,0,0,1.56-5.1c-.06-.77-.23-1.27-.38-1.28C113.71,243.28,113.58,254.76,113.78,255.06Z" transform="translate(-69.06 -240.11)"/><path class="cls-5" d="M139.62,258.67c-3.31.75-7.92,3.95-12,7.17.06-.32.12-.64.17-1s.11-.82.16-1.22a29.62,29.62,0,0,0,.23-4.26c-.08-3.65-1-6.21-2.33-7.85a2.61,2.61,0,0,0-3.94,0l-.12.12h0a1,1,0,0,0,.32,1.55,3.81,3.81,0,0,1,1.66,1.4c2.67,4,1.64,10.52-1,15.32l-.37.33-2.09,1.83c-3.4-2.92-9-7.6-11.36-9.18a1.3,1.3,0,0,0-1.6,0,1.42,1.42,0,0,0-.21,1.66c.68,1.61,3.3,7,4,11.73-8.58.52-13.81-12.82-11.59-20.45a8.46,8.46,0,0,1,1.21-2.57c3.16-4.47,6.76-1.2,10.13.75l.24.16a.81.81,0,0,0,1.25-.71c0-1.52.38-6.22,2.53-9.26-1.18-1.62-3.66-2.94-4.2-1.94-.75,1.38-.46,6.28-.15,8.65-6.41-5.24-17.93-3.72-14.72,12.17a27.66,27.66,0,0,0,2.63,7.51c-.9-.36-1.88-.71-3-1l-.37-.12v-.36a7.81,7.81,0,0,0-2-4.88c-4.92-6.2-13.28-11.51-20-8.52a3.84,3.84,0,0,0-2.09,2.79C70,263,72.63,273,83.85,286.11c4.79,5.62,21.6,23.94,36.3,23.54,2.73-.07,4.9-.89,5.94-2.25,3.5-4.53,1.91-9.44,0-12.76a27.52,27.52,0,0,0-6.21-7.06,13.94,13.94,0,0,0,1.16-.85c4.18,4,11,10.09,17.76,9.17,12.9-1.43,24-22.57,24.07-22.84C162.64,272.91,150.39,256.69,139.62,258.67Zm-16.24,37.8c2.74,5.31,2.47,9.1,1.4,10.09-.65.6-3.94.17-4.31.12l-.47-.07c-3.6-.56-10.43-2.35-18.65-8.11-9.64-6.76-18.37-16.94-25.93-30.25-2.58-4.56-3.22-7.78-1.88-9.57l.18-.22c1.16-1.29,3.39-1.54,6.26-.7,5.18,1.52,11,6.09,11.32,10.46l0,.55h-.59a9.69,9.69,0,0,0-4.54.78,3.51,3.51,0,0,0-1.2.87,1.48,1.48,0,0,0-.39,1,31.89,31.89,0,0,1,6,.11,26.64,26.64,0,0,1,11.11,3.62c3.18,3.32,6.88,4.6,9.61,4a12,12,0,0,1-.61,3,30.92,30.92,0,0,0-8.76-2.34,22.76,22.76,0,0,0-3.39-.09h0c-1.09.06-1.22.54-1.26.7a2.87,2.87,0,0,0,1,2.44,6.31,6.31,0,0,0,1.3,0c.7-.06,1.61-.13,2.68-.12a18.78,18.78,0,0,1,7.48,1.61c-.32.62-.65,1.2-1,1.76a35,35,0,0,1-3.72,4.72,1.27,1.27,0,0,0,.14,1.46,1.76,1.76,0,0,0,1,.67,1.37,1.37,0,0,0,.49,0,38.37,38.37,0,0,0,8.46-2.79c.7-.31,1.39-.63,2.06-1A26.18,26.18,0,0,1,123.38,296.47Zm15.31-3.77c-5.8.79-12.14-3.89-16-7.52l-.89-.86h0l-.87-.88-.13.13h0l-.33.33c-.11.11-.23.21-.36.32a10.65,10.65,0,0,1-.89.71l-.41.3-.18.12-.24.16-.25.16-.17.1-.29.18h0a23.5,23.5,0,0,1-2.61,1.3l-.13.05h0c-.53.23-2.94,1.06-3.2,1.13a18.81,18.81,0,0,0,2-9.75c-.43-5.46-3.63-12.4-3.65-12.47,2.59,1.79,6.61,5.64,8.69,7.45l0,0,.35.31.31.29.25.24q.47.45.87.9c.19-.21,10.6-12.47,20.43-13.31,8-.7,16,10.67,16.68,11.47C157.24,274.71,148.56,291.53,138.69,292.7Z" transform="translate(-69.06 -240.11)"/><path class="cls-6" d="M144.77,265c-8.76-3-17.68,6.17-23.1,11.52l-1.13-1.08c-.36-.4-.77-.81-1.17-1.19h0c-15.84-12.44.68,1.65-4.31,13a17.75,17.75,0,0,0,5.73-3.68,11.71,11.71,0,0,0,.92-.95c16.14,16.59,27.62,4.93,33.22-9.85C153.31,271.63,149.54,266.91,144.77,265Z" transform="translate(-69.06 -240.11)"/><circle class="cls-5" cx="74.1" cy="29.5" r="1.69"/><path class="cls-1" d="M498.33,296.33a2.32,2.32,0,1,1,2.32,2.29A2.28,2.28,0,0,1,498.33,296.33Zm2.32,1.91a1.91,1.91,0,1,0-1.86-1.91A1.84,1.84,0,0,0,500.65,298.24Zm-.48-.59h-.4V295h1c.63,0,.94.23.94.75a.69.69,0,0,1-.69.72l.75,1.16h-.45l-.69-1.14h-.46Zm.48-1.48c.33,0,.64,0,.64-.43s-.3-.38-.58-.38h-.54v.81Z" transform="translate(-69.06 -240.11)"/></svg>