<svg xmlns="http://www.w3.org/2000/svg" viewBox="0 0 105.83 17.86">
  <path d="M94.7027 1.3642c.4135.4153.4135 1.0896 0 1.5049L88.6725 8.932l6.0311 6.0597a1.07 1.07 0 010 1.508l-1.3553 1.3624L85.18 9.655a1.0253 1.0253 0 010-1.4446L93.3456.001zm10.8499 6.8845a.9663.9663 0 010 1.362l-8.2063 8.251-1.4174-1.424a.9824.9824 0 010-1.3844l6.0906-6.1231-6.0388-6.0678a1.0588 1.0588 0 010-1.492L97.3437 0zm-23.6218 5.774v.0898h-.254v.6667h-.1028v-.6667h-.254v-.0902h.6108zm.0911 0h.146l.2166.6394.2153-.6399h.1451v.757h-.0973v-.4466c0-.0156 0-.0411.0008-.0768a5.1693 5.1693 0 00.0013-.1153l-.2153.6386h-.1013l-.217-.6386v.0232c0 .0188.0005.047.0018.0848l.0013.084v.4465h-.0973v-.757zm-5.3653-.9106c1.7192 0 2.8981-1.3785 2.8981-3.204 0-1.8058-1.1789-3.1844-2.898-3.1844-1.7001 0-2.8786 1.4174-2.8786 3.2233 0 1.7862 1.1785 3.1651 2.8785 3.1651zm.4832 1.8255c-1.488 0-2.7436-.7381-3.4005-2.1555v2.0006h-1.9318V1.5585l1.9318-.3885v5.8838c.6569-1.4179 1.9126-2.1556 3.4005-2.1556 2.4917 0 4.482 1.9224 4.482 5.0296 0 3.0874-1.9898 5.0098-4.482 5.0098zm-15.3516-4.1752V5.0536H63.72v5.8642c0 1.2816.8114 2.1555 2.164 2.1555 1.3521 0 2.164-.8735 2.164-2.1555V5.0536h1.9317v5.7088c0 2.6605-1.6424 4.1556-4.0957 4.1556-2.4538 0-4.0958-1.495-4.0958-4.1556zm-1.3544 4.1556c-1.9899.0777-3.091-.9708-3.091-3.3201V1.5585l1.9317-.3885v10.4279c0 .932.5024 1.3588 1.1977 1.3588h.5024V14.86a2.5587 2.5587 0 01-.5404.058zM47.777 9.908c0-3.0875 2.1256-5.0099 5.0814-5.0099 1.391 0 2.6275.4466 3.5742 1.3982l-1.179 1.4562c-.7336-.7377-1.603-1.0289-2.376-1.0289-1.7773 0-3.0335 1.0678-3.0335 3.1652 0 2.0975 1.2562 3.204 3.0335 3.204.7725 0 1.6424-.3108 2.3957-1.0873l1.1785 1.437c-.9467.9511-2.164 1.4754-3.5934 1.4754-2.937 0-5.0814-1.9224-5.0814-5.0099zm-11.475 3.981l.8694-1.767c.6377.4658 1.7773.99 2.6467.99 1.082 0 1.5071-.5242 1.5071-1.0873.0192-.66-.5215-.9128-1.6616-1.2816-1.9126-.5823-2.9946-1.262-2.9946-3.0486 0-1.6313 1.237-2.7964 3.4778-2.7964 1.1592 0 2.2216.3689 3.0718.9708l-.8694 1.6121c-.5024-.3108-1.3526-.777-2.2993-.777-.8306 0-1.333.3304-1.333.9708 0 .5242.367.8739 1.5844 1.2428 2.0675.6216 3.091 1.3981 3.091 3.0294 0 1.8447-1.4874 2.9709-3.5545 2.9709-1.4111 0-2.7628-.4658-3.5358-1.0289zM34.9093 2.2573h2.0863L35.7787 6.083h-1.6036zM27.643 14.763h-1.9323V8.8596c0-1.2236-.6376-2.1555-1.9318-2.1555-1.4106 0-2.3957 1.2427-2.3957 2.8352v5.2237H19.451V5.0536h1.9322v1.7282c.5796-1.2236 1.642-1.9028 2.8785-1.9028 1.295 0 2.3573.6797 2.9365 1.8443.8118-1.2816 1.8934-1.8443 3.1884-1.8443 2.0282 0 3.5157 1.534 3.5157 3.9998v5.8842h-1.9318V8.8596c0-1.2236-.6377-2.1555-1.9322-2.1555-1.4102 0-2.3953 1.2427-2.3953 2.8352zM12.7897 6.7237c-1.7192 0-2.8981 1.3785-2.8981 3.204 0 1.806 1.1789 3.1844 2.8981 3.1844 1.7005 0 2.879-1.4173 2.879-3.2232 0-1.7862-1.179-3.1652-2.879-3.1652zm2.9174 6.0584c-.6565 1.4178-1.9126 2.1555-3.4001 2.1555-2.4922 0-4.4825-1.9224-4.4825-5.0295 0-3.0875 1.9903-5.0099 4.4825-5.0099 1.4875 0 2.7432.7377 3.4 2.1555v-2h1.9323v9.7089H15.707zM.0004 13.8891l.8695-1.767c.6377.4658 1.7773.99 2.6467.99 1.082 0 1.5071-.5242 1.5071-1.0873.0192-.66-.5216-.9128-1.6612-1.2816C1.4491 10.1609.3671 9.4812.3671 7.6945c0-1.6312 1.237-2.7963 3.4777-2.7963 1.1593 0 2.2216.3689 3.0718.9708l-.8694 1.6121c-.5024-.3108-1.3526-.777-2.2993-.777-.8306 0-1.333.3304-1.333.9708 0 .5242.3671.8739 1.5844 1.2428 2.0676.6216 3.091 1.3981 3.091 3.0294 0 1.8447-1.4874 2.9709-3.5545 2.9709-1.4107 0-2.7628-.4658-3.5358-1.029z" fill="#0067a0" fill-rule="evenodd"/>
</svg>