<?xml version="1.0" encoding="UTF-8" standalone="no"?>
<!-- Created with Inkscape (http://www.inkscape.org/) -->

<svg
   xmlns:svg="http://www.w3.org/2000/svg"
   xmlns="http://www.w3.org/2000/svg"
   version="1.1"
   width="213.21429"
   height="46.890072"
   id="svg4166">
  <defs
     id="defs4168" />
  <g
     transform="translate(-283.93666,-578.55999)"
     id="layer1">
    <path
       d="m 497.15095,602.03167 0,8.32031 -28.03858,0 -3.75,-8.32031 31.78858,0"
       id="path291"
       style="fill:#ff0000;fill-opacity:1;fill-rule:evenodd;stroke:none" />
    <path
       d="m 497.15095,590.63031 0,8.17382 -33.2876,0 -0.97656,-2.39746 9.52636,-5.92774 24.7378,0.15138"
       id="path293"
       style="fill:#ff0000;fill-opacity:1;fill-rule:evenodd;stroke:none" />
    <path
       d="m 497.15095,587.32952 -38.31201,0 -3.52539,-8.76953 41.8374,0 0,8.76953"
       id="path295"
       style="fill:#ff0000;fill-opacity:1;fill-rule:evenodd;stroke:none" />
    <path
       d="m 468.13581,610.27874 -25.86914,0 12.59765,-8.17383 13.27149,8.17383"
       id="path297"
       style="fill:#ff0000;fill-opacity:1;fill-rule:evenodd;stroke:none" />
    <path
       d="m 329.48348,578.63323 -3.22267,18.89649 4.12598,-6.97266 17.2461,0 0.89844,-3.37403 -16.27442,0 5.32714,-8.5498 21.22071,0 -5.54687,31.71875 -9.22364,0 2.02149,-11.54785 -9.67285,0 -6.89941,11.54785 -14.69728,0 2.17285,-11.54785 -9.67285,0 -7.2705,11.54785 -10.12696,0 11.92383,-19.79492 16.65039,0 0.5957,-3.37403 -15.29296,0 5.24414,-8.5498 20.47364,0"
       id="path299"
       style="fill:#0000ff;fill-opacity:1;fill-rule:evenodd;stroke:none" />
    <path
       d="m 388.4239,587.25628 -27.51954,0 1.6504,-8.62305 27.44629,0 -1.57715,8.62305"
       id="path301"
       style="fill:#0000ff;fill-opacity:1;fill-rule:evenodd;stroke:none" />
    <path
       d="m 420.59675,578.63323 -1.42579,8.62305 -27.44629,0 1.57228,-8.62305 27.2998,0"
       id="path303"
       style="fill:#0000ff;fill-opacity:1;fill-rule:evenodd;stroke:none" />
    <path
       d="m 450.51374,587.25628 -29.46778,0.0733 0.44923,-1.4209 0.74707,-1.49902 0.90331,-1.42578 1.12305,-1.35254 1.27442,-1.20117 1.49902,-0.97168 1.42578,-0.60058 1.49902,-0.22462 24.14551,0 -3.59863,8.62305"
       id="path305"
       style="fill:#0000ff;fill-opacity:1;fill-rule:evenodd;stroke:none" />
    <path
       d="m 386.39753,598.80413 -18.44238,0 -2.25097,11.54785 -8.99903,0 3.82324,-19.79492 27.44629,0 -1.57715,8.24707"
       id="path307"
       style="fill:#0000ff;fill-opacity:1;fill-rule:evenodd;stroke:none" />
    <path
       d="m 417.07136,598.80413 -18.44727,0 -0.44922,3.22754 18.44239,-0.0781 -1.79688,8.39844 -27.29492,0 3.89649,-19.79493 26.99706,0 -1.34765,8.24708"
       id="path309"
       style="fill:#0000ff;fill-opacity:1;fill-rule:evenodd;stroke:none" />
    <path
       d="m 439.11726,590.47893 1.19629,0.52735 1.27929,0.60059 0.97168,0.97656 0.97657,1.12304 0.82518,1.1963 0.60059,1.27929 0.44922,1.34766 0.22462,1.27441 -11.25,0 -1.12305,-0.0733 -1.04982,0 -1.0498,-0.0781 -1.20117,-0.22461 -0.89844,-0.14649 -1.0498,-0.30274 -0.97656,-0.2246 -0.8252,-0.37598 -0.89844,-0.44922 -0.89844,-0.52246 -0.82518,-0.60059 -0.67872,-0.67871 -0.5957,-0.82031 -0.67871,-0.97656 -0.74707,-2.85157 18.22266,0"
       id="path311"
       style="fill:#0000ff;fill-opacity:1;fill-rule:evenodd;stroke:none" />
    <path
       d="m 445.11335,601.80706 -0.60059,1.57227 -0.74706,1.57226 -1.04981,1.2793 -1.0498,1.12304 -1.42579,1.04981 -1.42578,0.82519 -1.49902,0.60059 -1.57226,0.44922 -17.17285,0 1.57226,-8.47168 24.9707,0"
       id="path313"
       style="fill:#0000ff;fill-opacity:1;fill-rule:evenodd;stroke:none" />
    <path
       d="m 283.93666,622.81341 5.07813,-8.94531 1.40625,0 1.48437,8.94531 -1.17187,0 -0.42969,-2.57813 -3.61328,0 -1.44532,2.57813 -1.30859,0 z m 3.26172,-3.4961 2.96875,0 -0.35156,-2.24609 c -0.13184,-0.89844 -0.21485,-1.64062 -0.25391,-2.22656 -0.20996,0.50781 -0.50781,1.11327 -0.89844,1.8164 l -1.46484,2.65625 z m 0,0"
       id="path4062"
       style="fill:#000000;fill-opacity:1;stroke:none" />
    <path
       d="m 292.701,622.81341 1.36719,-6.48438 0.97656,0 -0.27343,1.32813 c 0.32226,-0.50781 0.64453,-0.87891 0.95703,-1.11329 0.32226,-0.23437 0.6543,-0.35156 0.99609,-0.35156 0.21973,0 0.48828,0.0781 0.80078,0.23437 l -0.44922,1.01563 c -0.18554,-0.12695 -0.39062,-0.19531 -0.625,-0.19531 -0.39062,0 -0.79101,0.21485 -1.1914,0.64453 -0.40528,0.42969 -0.72266,1.20605 -0.95703,2.32422 l -0.54688,2.59766 -1.05469,0 z m 0,0"
       id="path4066"
       style="fill:#000000;fill-opacity:1;stroke:none" />
    <path
       d="m 296.74386,622.81341 1.34765,-6.48438 1.11329,0 -0.23438,1.07422 c 0.41504,-0.46875 0.78613,-0.78613 1.11328,-0.95703 0.32227,-0.16601 0.67383,-0.25391 1.05469,-0.25391 0.40039,0 0.73242,0.10737 0.99609,0.3125 0.27344,0.20996 0.4541,0.50781 0.54688,0.89844 0.32226,-0.40039 0.66894,-0.70313 1.03515,-0.89844 0.36133,-0.20508 0.74707,-0.3125 1.15235,-0.3125 0.53222,0 0.9375,0.13184 1.21094,0.39062 0.27343,0.24903 0.41015,0.60548 0.41015,1.07423 0,0.19531 -0.0488,0.52246 -0.13672,0.97656 l -0.8789,4.17969 -1.09375,0 0.8789,-4.27735 c 0.0781,-0.35156 0.11719,-0.60546 0.11719,-0.76171 0,-0.20508 -0.0684,-0.3711 -0.19531,-0.48829 -0.13184,-0.12695 -0.32227,-0.19531 -0.56641,-0.19531 -0.3418,0 -0.67871,0.10737 -1.01562,0.3125 -0.3418,0.19531 -0.60547,0.45898 -0.80078,0.78125 -0.18555,0.3125 -0.34668,0.81055 -0.48829,1.48437 l -0.66406,3.14454 -1.09375,0 0.91797,-4.375 c 0.0635,-0.29785 0.0977,-0.5127 0.0977,-0.64454 0,-0.20507 -0.0732,-0.37597 -0.21484,-0.50781 -0.13184,-0.12695 -0.30274,-0.19531 -0.50782,-0.19531 -0.3125,0 -0.64453,0.10737 -0.99609,0.3125 -0.3418,0.19531 -0.62012,0.46875 -0.83984,0.82031 -0.20996,0.35156 -0.38575,0.85937 -0.52735,1.52344 l -0.625,3.06641 -1.11328,0 z m 0,0"
       id="path4070"
       style="fill:#000000;fill-opacity:1;stroke:none" />
    <path
       d="m 306.38253,625.31341 0.0586,-1.03516 c 0.23438,0.0635 0.45898,0.0976 0.68359,0.0976 0.21973,0 0.39551,-0.0538 0.52735,-0.15625 0.18066,-0.13184 0.37597,-0.38574 0.58594,-0.76173 l 0.35156,-0.625 -1.07422,-6.5039 1.09375,0 0.48828,3.28125 c 0.0879,0.6543 0.17578,1.29883 0.25391,1.93359 l 2.89062,-5.21484 1.15235,0 -4.1211,7.34375 c -0.40527,0.71289 -0.76172,1.1914 -1.07422,1.42578 -0.3125,0.23437 -0.67383,0.35156 -1.07422,0.35156 -0.24902,0 -0.49804,-0.0489 -0.74218,-0.13671 z m 0,0"
       id="path4058"
       style="fill:#000000;fill-opacity:1;stroke:none" />
    <path
       d=""
       id="path3934"
       style="fill:#000000;fill-opacity:1;stroke:none" />
    <path
       d="m 320.61761,622.01262 c -0.38085,0.32715 -0.75195,0.56641 -1.11327,0.72266 -0.35157,0.15625 -0.73243,0.23438 -1.13282,0.23438 -0.60058,0 -1.08398,-0.17579 -1.44531,-0.52735 -0.36621,-0.36133 -0.54687,-0.82031 -0.54687,-1.36719 0,-0.36132 0.0781,-0.68359 0.23437,-0.95702 0.16602,-0.27344 0.39063,-0.49317 0.66406,-0.66407 0.27344,-0.16601 0.61035,-0.29297 1.01563,-0.3711 0.24414,-0.0489 0.71289,-0.0879 1.40625,-0.11712 0.68848,-0.0244 1.18164,-0.0976 1.48438,-0.21484 0.0879,-0.29785 0.13671,-0.55176 0.13671,-0.76172 0,-0.24414 -0.0927,-0.44922 -0.27344,-0.60547 -0.26366,-0.19531 -0.63965,-0.29297 -1.13281,-0.29297 -0.46875,0 -0.85449,0.10737 -1.15234,0.3125 -0.28809,0.19531 -0.49805,0.4834 -0.625,0.85937 l -1.11328,-0.0976 c 0.21972,-0.63476 0.57617,-1.12305 1.07422,-1.46485 0.49316,-0.33691 1.11816,-0.50781 1.875,-0.50781 0.79101,0 1.42577,0.19044 1.89452,0.56641 0.36134,0.28809 0.54688,0.65918 0.54688,1.11328 0,0.3418 -0.0537,0.73731 -0.15625,1.19141 l -0.35156,1.62109 c -0.11713,0.50782 -0.17578,0.92774 -0.17578,1.25 0,0.20997 0.044,0.50294 0.13671,0.87892 l -1.11327,0 c -0.0684,-0.20508 -0.11225,-0.47364 -0.13673,-0.80079 z m 0.41017,-2.48046 c -0.15625,0.0684 -0.32715,0.11712 -0.50782,0.15625 -0.1709,0.0293 -0.46387,0.0538 -0.87891,0.0781 -0.63964,0.0684 -1.09375,0.14649 -1.36718,0.23437 -0.26367,0.0781 -0.46387,0.21484 -0.60547,0.41015 -0.13184,0.19532 -0.19531,0.40528 -0.19531,0.625 0,0.3125 0.10253,0.57618 0.3125,0.78125 0.21972,0.19532 0.53222,0.29298 0.9375,0.29298 0.36132,0 0.71289,-0.0976 1.05469,-0.29298 0.33691,-0.19531 0.60546,-0.45897 0.80077,-0.80077 0.19531,-0.35156 0.3418,-0.84473 0.44923,-1.48438 z m 0,0"
       id="path3938"
       style="fill:#000000;fill-opacity:1;stroke:none" />
    <path
       d="m 322.99448,622.81341 1.36718,-6.48438 0.99609,0 -0.23437,1.13282 c 0.42968,-0.43945 0.83007,-0.76173 1.21093,-0.95704 0.37598,-0.20508 0.7666,-0.3125 1.17188,-0.3125 0.51757,0 0.92774,0.14649 1.23047,0.42969 0.29785,0.27343 0.44922,0.6543 0.44922,1.13281 0,0.23437 -0.0537,0.61524 -0.15625,1.13281 l -0.82032,3.92579 -1.11327,0 0.85937,-4.10156 c 0.0879,-0.40039 0.13672,-0.70313 0.13672,-0.89844 0,-0.20508 -0.0781,-0.37598 -0.23438,-0.50781 -0.14649,-0.1416 -0.36132,-0.21485 -0.64452,-0.21485 -0.56153,0 -1.06447,0.20996 -1.50392,0.625 -0.44433,0.40527 -0.77148,1.10352 -0.97656,2.08985 l -0.625,3.00781 -1.11327,0 z m 0,0"
       id="path3942"
       style="fill:#000000;fill-opacity:1;stroke:none" />
    <path
       d="m 334.12134,621.87591 c -0.625,0.73242 -1.28419,1.09375 -1.97266,1.09375 -0.61524,0 -1.12793,-0.22461 -1.54297,-0.6836 -0.40527,-0.4541 -0.60547,-1.11328 -0.60547,-1.97265 0,-0.79101 0.15625,-1.51368 0.46875,-2.16798 0.32226,-0.64941 0.72754,-1.13768 1.21094,-1.46483 0.49316,-0.32227 0.98632,-0.48829 1.48437,-0.48829 0.80566,0 1.41114,0.38575 1.81641,1.15235 l 0.74219,-3.47656 1.09375,0 -1.875,8.94531 -1.01562,0 0.19531,-0.9375 z m -3.02735,-1.77735 c 0,0.45899 0.044,0.81544 0.13672,1.07422 0.0879,0.26368 0.23925,0.47852 0.44922,0.64453 0.21972,0.1709 0.47851,0.25391 0.78125,0.25391 0.49316,0 0.94726,-0.25879 1.36718,-0.78125 0.54688,-0.68847 0.82032,-1.54297 0.82032,-2.5586 0,-0.50781 -0.13672,-0.90331 -0.41015,-1.1914 -0.27344,-0.29785 -0.61524,-0.44922 -1.01563,-0.44922 -0.26367,0 -0.50294,0.0586 -0.72266,0.17578 -0.22461,0.11713 -0.43945,0.32227 -0.64453,0.60547 -0.20996,0.28808 -0.39062,0.6543 -0.54687,1.09375 -0.14649,0.42968 -0.21485,0.81055 -0.21485,1.13281 z m 0,0"
       id="path3946"
       style="fill:#000000;fill-opacity:1;stroke:none" />
    <path
       d=""
       id="path3950"
       style="fill:#000000;fill-opacity:1;stroke:none" />
    <path
       d="m 339.21006,622.81341 5.07813,-8.94531 1.40625,0 1.48437,8.94531 -1.17187,0 -0.42969,-2.57813 -3.61329,0 -1.44531,2.57813 -1.30859,0 z m 3.26172,-3.4961 2.96875,0 -0.35157,-2.24609 c -0.13183,-0.89844 -0.21483,-1.64062 -0.2539,-2.22656 -0.20996,0.50781 -0.50781,1.11327 -0.89843,1.8164 l -1.46485,2.65625 z m 0,0"
       id="path3954"
       style="fill:#000000;fill-opacity:1;stroke:none" />
    <path
       d="m 349.55644,615.1181 0.2539,-1.25 1.09375,0 -0.2539,1.25 -1.09375,0 z m -1.6211,7.69531 1.34766,-6.48438 1.11328,0 -1.34765,6.48438 -1.11329,0 z m 0,0"
       id="path3958"
       style="fill:#000000;fill-opacity:1;stroke:none" />
    <path
       d="m 350.66884,622.81341 1.36719,-6.48438 0.97656,0 -0.27344,1.32813 c 0.32226,-0.50781 0.64453,-0.87891 0.95703,-1.11329 0.32226,-0.23437 0.6543,-0.35156 0.99608,-0.35156 0.21974,0 0.48829,0.0781 0.80079,0.23437 l -0.44922,1.01563 c -0.18554,-0.12695 -0.39063,-0.19531 -0.625,-0.19531 -0.39062,0 -0.79102,0.21485 -1.1914,0.64453 -0.40528,0.42969 -0.72265,1.20605 -0.95703,2.32422 l -0.54687,2.59766 -1.05469,0 z m 0,0"
       id="path3962"
       style="fill:#000000;fill-opacity:1;stroke:none" />
    <path
       d=""
       id="path3966"
       style="fill:#000000;fill-opacity:1;stroke:none" />
    <path
       d="m 358.24386,622.81341 1.875,-8.94531 5.82032,0 -0.21484,1.01562 -4.62891,0 -0.58594,2.85156 4.70704,0 -0.21485,1.01563 -4.70703,0 -0.85937,4.0625 -1.19142,0 z m 0,0"
       id="path3970"
       style="fill:#000000;fill-opacity:1;stroke:none" />
    <path
       d="m 365.70293,620.35247 c 0,-1.25976 0.37109,-2.30957 1.11328,-3.14454 0.625,-0.67382 1.43067,-1.01562 2.42188,-1.01562 0.78125,0 1.41113,0.24902 1.89452,0.74219 0.47853,0.4834 0.72266,1.13281 0.72266,1.95312 0,0.75684 -0.15625,1.45509 -0.46875,2.08985 -0.30273,0.63965 -0.73242,1.13281 -1.28906,1.48438 -0.54687,0.3418 -1.12792,0.50781 -1.73828,0.50781 -0.50782,0 -0.97168,-0.11225 -1.38672,-0.33204 -0.40527,-0.21972 -0.71777,-0.52734 -0.9375,-0.91796 -0.22461,-0.39063 -0.33203,-0.84473 -0.33203,-1.36719 z m 1.11328,-0.11712 c 0,0.61523 0.1416,1.08398 0.42969,1.40625 0.29785,0.3125 0.67383,0.46875 1.13281,0.46875 0.23438,0 0.45899,-0.044 0.68359,-0.13673 0.23438,-0.1025 0.44922,-0.2539 0.64454,-0.44921 0.20507,-0.19531 0.37597,-0.41504 0.50781,-0.66406 0.1416,-0.24414 0.25879,-0.51758 0.35156,-0.82032 0.12695,-0.40038 0.19531,-0.78613 0.19531,-1.15235 0,-0.58593 -0.15136,-1.04003 -0.44922,-1.36718 -0.30272,-0.32227 -0.67382,-0.48828 -1.11328,-0.48828 -0.35156,0 -0.67382,0.0879 -0.95703,0.2539 -0.27344,0.1709 -0.52734,0.41016 -0.76172,0.72266 -0.23437,0.3125 -0.40527,0.68359 -0.50781,1.11328 -0.10737,0.41992 -0.15625,0.79102 -0.15625,1.11329 z m 0,0"
       id="path3974"
       style="fill:#000000;fill-opacity:1;stroke:none" />
    <path
       d="m 372.25948,622.81341 1.36718,-6.48438 0.97657,0 -0.27344,1.32813 c 0.32227,-0.50781 0.64454,-0.87891 0.95704,-1.11329 0.32226,-0.23437 0.6543,-0.35156 0.99608,-0.35156 0.21974,0 0.48829,0.0781 0.80079,0.23437 l -0.44922,1.01563 c -0.18554,-0.12695 -0.39063,-0.19531 -0.625,-0.19531 -0.39063,0 -0.79102,0.21485 -1.1914,0.64453 -0.40528,0.42969 -0.72267,1.20605 -0.95704,2.32422 l -0.54688,2.59766 -1.05468,0 z m 0,0"
       id="path3978"
       style="fill:#000000;fill-opacity:1;stroke:none" />
    <path
       d="m 380.77499,620.45012 1.11329,0.11713 c -0.27344,0.81055 -0.67384,1.41602 -1.19142,1.81641 -0.50781,0.39062 -1.08886,0.58594 -1.73827,0.58594 -0.70313,0 -1.2793,-0.22462 -1.71875,-0.6836 -0.42969,-0.46875 -0.64454,-1.10352 -0.64454,-1.91407 0,-0.71288 0.13673,-1.41112 0.41016,-2.08983 0.2832,-0.68848 0.68848,-1.21094 1.21094,-1.5625 0.51758,-0.35157 1.11816,-0.52735 1.79688,-0.52735 0.68847,0 1.23535,0.19531 1.64062,0.58593 0.41504,0.39063 0.625,0.91309 0.625,1.5625 l -1.09375,0.0586 c 0,-0.40038 -0.11712,-0.72266 -0.35156,-0.95703 -0.23438,-0.23438 -0.542,-0.35157 -0.91798,-0.35157 -0.44433,0 -0.83007,0.14649 -1.15233,0.42969 -0.32715,0.27344 -0.58594,0.69825 -0.78125,1.26954 -0.18555,0.57617 -0.27344,1.12792 -0.27344,1.66015 0,0.54687 0.122,0.9668 0.37109,1.25 0.24413,0.27344 0.54687,0.41016 0.89843,0.41016 0.36133,0 0.70802,-0.13672 1.03517,-0.41016 0.32226,-0.27344 0.57616,-0.68848 0.76171,-1.25 z m 0,0"
       id="path3982"
       style="fill:#000000;fill-opacity:1;stroke:none" />
    <path
       d="m 387.13952,620.60637 1.07423,0.11713 c -0.15625,0.53711 -0.51758,1.04492 -1.07423,1.52343 -0.54687,0.4834 -1.20605,0.72267 -1.97265,0.72267 -0.4834,0 -0.92773,-0.11225 -1.32812,-0.33204 -0.40528,-0.23438 -0.71289,-0.55664 -0.91798,-0.97656 -0.20995,-0.42969 -0.3125,-0.9082 -0.3125,-1.44532 0,-0.71288 0.16114,-1.40625 0.48829,-2.07031 0.32226,-0.66406 0.74707,-1.15234 1.26953,-1.46484 0.51758,-0.32226 1.08398,-0.48828 1.69922,-0.48828 0.7666,0 1.37695,0.24415 1.83594,0.72266 0.46875,0.46875 0.70312,1.12305 0.70312,1.95312 0,0.3125 -0.0293,0.63965 -0.0781,0.97657 l -4.76563,0 c -0.0293,0.13183 -0.039,0.24902 -0.039,0.35156 0,0.60059 0.13671,1.06445 0.41015,1.38671 0.28322,0.3125 0.62989,0.46875 1.03517,0.46875 0.37597,0 0.74707,-0.12212 1.11327,-0.37109 0.36134,-0.24413 0.64943,-0.60547 0.85937,-1.07422 z m -3.20312,-1.60156 3.63281,0 c 0,-0.11713 0,-0.20019 0,-0.2539 0,-0.54688 -0.13671,-0.96191 -0.41015,-1.25 -0.27344,-0.29785 -0.63476,-0.44923 -1.07422,-0.44923 -0.46875,0 -0.89844,0.16603 -1.28907,0.48829 -0.39062,0.32715 -0.6787,0.81543 -0.85937,1.46484 z m 0,0"
       id="path3986"
       style="fill:#000000;fill-opacity:1;stroke:none" />
    <path
       d=""
       id="path3990"
       style="fill:#000000;fill-opacity:1;stroke:none" />
    <path
       d="m 392.65792,622.81341 1.875,-8.94531 6.44532,0 -0.21484,1.01562 -5.25391,0 -0.58594,2.79296 5.13672,0 -0.21485,1.01563 -5.13671,0 -0.64454,3.10547 5.625,0 -0.21483,1.01563 -6.81642,0 z m 0,0"
       id="path3994"
       style="fill:#000000;fill-opacity:1;stroke:none" />
    <path
       d="m 400.17229,622.81341 2.8125,-3.28125 -1.60157,-3.20313 1.21094,0 0.54688,1.15234 c 0.20508,0.42969 0.39062,0.84961 0.54687,1.25 l 1.875,-2.40234 1.34766,0 -2.71485,3.28125 1.6211,3.20313 -1.21093,0 -0.64454,-1.32813 c -0.14648,-0.27343 -0.30273,-0.61523 -0.46875,-1.03516 l -1.93359,2.36329 -1.38672,0 z m 0,0"
       id="path3998"
       style="fill:#000000;fill-opacity:1;stroke:none" />
    <path
       d="m 411.1462,620.45012 1.11327,0.11713 c -0.27343,0.81055 -0.67382,1.41602 -1.1914,1.81641 -0.50781,0.39062 -1.08886,0.58594 -1.73828,0.58594 -0.70313,0 -1.27929,-0.22462 -1.71875,-0.6836 -0.42969,-0.46875 -0.64453,-1.10352 -0.64453,-1.91407 0,-0.71288 0.13671,-1.41112 0.41015,-2.08983 0.28321,-0.68848 0.68849,-1.21094 1.21094,-1.5625 0.51759,-0.35157 1.11817,-0.52735 1.79687,-0.52735 0.68849,0 1.23537,0.19531 1.64063,0.58593 0.41505,0.39063 0.625,0.91309 0.625,1.5625 l -1.09375,0.0586 c 0,-0.40038 -0.11713,-0.72266 -0.35156,-0.95703 -0.23438,-0.23438 -0.54199,-0.35157 -0.91797,-0.35157 -0.44433,0 -0.83007,0.14649 -1.15235,0.42969 -0.32713,0.27344 -0.58593,0.69825 -0.78125,1.26954 -0.18553,0.57617 -0.27343,1.12792 -0.27343,1.66015 0,0.54687 0.12212,0.9668 0.3711,1.25 0.24413,0.27344 0.54687,0.41016 0.89843,0.41016 0.36133,0 0.70802,-0.13672 1.03515,-0.41016 0.32228,-0.27344 0.57618,-0.68848 0.76173,-1.25 z m 0,0"
       id="path4002"
       style="fill:#000000;fill-opacity:1;stroke:none" />
    <path
       d="m 412.7451,622.81341 1.875,-8.94531 1.09375,0 -0.70313,3.4375 c 0.4004,-0.40039 0.78125,-0.68848 1.13282,-0.85938 0.36133,-0.16601 0.73242,-0.25391 1.11328,-0.25391 0.53223,0 0.94239,0.14649 1.23047,0.42969 0.29786,0.27343 0.44922,0.64453 0.44922,1.11328 0,0.22462 -0.0684,0.63965 -0.19531,1.25 l -0.78125,3.82813 -1.11329,0 0.82031,-3.92579 c 0.11713,-0.57129 0.17579,-0.92772 0.17579,-1.07421 0,-0.20508 -0.0733,-0.37598 -0.21485,-0.50781 -0.14647,-0.1416 -0.36132,-0.21485 -0.64452,-0.21485 -0.39063,0 -0.77149,0.10737 -1.13282,0.3125 -0.36621,0.20996 -0.6543,0.49805 -0.85937,0.85937 -0.19531,0.36621 -0.38086,0.95215 -0.54688,1.75781 l -0.58593,2.79298 -1.11329,0 z m 0,0"
       id="path4006"
       style="fill:#000000;fill-opacity:1;stroke:none" />
    <path
       d="m 423.87196,622.01262 c -0.38085,0.32715 -0.75195,0.56641 -1.11327,0.72266 -0.35157,0.15625 -0.73243,0.23438 -1.13282,0.23438 -0.60058,0 -1.08398,-0.17579 -1.44531,-0.52735 -0.36621,-0.36133 -0.54687,-0.82031 -0.54687,-1.36719 0,-0.36132 0.0781,-0.68359 0.23437,-0.95702 0.16601,-0.27344 0.39063,-0.49317 0.66406,-0.66407 0.27344,-0.16601 0.61035,-0.29297 1.01563,-0.3711 0.24414,-0.0489 0.71289,-0.0879 1.40625,-0.11712 0.68847,-0.0244 1.18164,-0.0976 1.48437,-0.21484 0.0879,-0.29785 0.13672,-0.55176 0.13672,-0.76172 0,-0.24414 -0.0927,-0.44922 -0.27344,-0.60547 -0.26366,-0.19531 -0.63964,-0.29297 -1.13281,-0.29297 -0.46875,0 -0.85449,0.10737 -1.15234,0.3125 -0.28809,0.19531 -0.49805,0.4834 -0.625,0.85937 l -1.11329,-0.0976 c 0.21974,-0.63476 0.57618,-1.12305 1.07423,-1.46485 0.49316,-0.33691 1.11816,-0.50781 1.875,-0.50781 0.79101,0 1.42577,0.19044 1.89452,0.56641 0.36134,0.28809 0.54688,0.65918 0.54688,1.11328 0,0.3418 -0.0538,0.73731 -0.15625,1.19141 l -0.35157,1.62109 c -0.11712,0.50781 -0.17577,0.92774 -0.17577,1.25 0,0.20996 0.044,0.50294 0.13671,0.87891 l -1.11327,0 c -0.0684,-0.20507 -0.11225,-0.47364 -0.13673,-0.80079 z m 0.41016,-2.48046 c -0.15625,0.0684 -0.32715,0.11712 -0.50781,0.15625 -0.1709,0.0293 -0.46386,0.0538 -0.87891,0.0781 -0.63964,0.0684 -1.09375,0.14649 -1.36719,0.23437 -0.26366,0.0781 -0.46386,0.21484 -0.60546,0.41015 -0.13184,0.19532 -0.19531,0.40528 -0.19531,0.625 0,0.3125 0.1025,0.57618 0.3125,0.78125 0.21972,0.19532 0.53222,0.29298 0.9375,0.29298 0.36132,0 0.71288,-0.0976 1.05468,-0.29298 0.33692,-0.19531 0.60547,-0.45897 0.80078,-0.80077 0.19531,-0.35156 0.3418,-0.84473 0.44922,-1.48438 z m 0,0"
       id="path4010"
       style="fill:#000000;fill-opacity:1;stroke:none" />
    <path
       d="m 426.24884,622.81341 1.36718,-6.48438 0.99609,0 -0.23437,1.13282 c 0.42968,-0.43945 0.83007,-0.76173 1.21093,-0.95704 0.37598,-0.20508 0.7666,-0.3125 1.17188,-0.3125 0.51757,0 0.92774,0.14649 1.23047,0.42969 0.29785,0.27343 0.44922,0.6543 0.44922,1.13281 0,0.23437 -0.0538,0.61524 -0.15625,1.13281 l -0.82032,3.92579 -1.11327,0 0.85937,-4.10156 c 0.0879,-0.40039 0.13672,-0.70313 0.13672,-0.89844 0,-0.20508 -0.0781,-0.37598 -0.23438,-0.50781 -0.14649,-0.1416 -0.36132,-0.21485 -0.64452,-0.21485 -0.56153,0 -1.06447,0.20996 -1.50392,0.625 -0.44433,0.40527 -0.77148,1.10352 -0.97656,2.08985 l -0.625,3.00781 -1.11327,0 z m 0,0"
       id="path4014"
       style="fill:#000000;fill-opacity:1;stroke:none" />
    <path
       d="m 432.94209,623.39935 1.11327,0.0976 c 0,0.2588 0.0293,0.44922 0.0976,0.56641 0.0635,0.12695 0.17577,0.22461 0.33202,0.29296 0.19531,0.0879 0.45411,0.13673 0.78125,0.13673 0.66406,0 1.1377,-0.1709 1.42579,-0.50782 0.19531,-0.23437 0.37597,-0.74218 0.54687,-1.52343 l 0.0976,-0.52735 c -0.57616,0.58593 -1.18651,0.87891 -1.83594,0.87891 -0.65429,0 -1.20116,-0.23926 -1.64062,-0.72266 -0.44433,-0.47852 -0.66407,-1.1621 -0.66407,-2.05078 0,-0.72754 0.17579,-1.39649 0.52735,-2.01172 0.35157,-0.61035 0.76172,-1.06445 1.23047,-1.36719 0.47852,-0.3125 0.98145,-0.46875 1.50391,-0.46875 0.84472,0 1.49414,0.4004 1.95312,1.19141 l 0.21484,-1.05469 1.01563,0 -1.30859,6.25 c -0.14649,0.68848 -0.33204,1.2207 -0.56641,1.60157 -0.2246,0.39062 -0.54199,0.68847 -0.95703,0.89843 -0.41992,0.21973 -0.89355,0.33203 -1.42579,0.33203 -0.52245,0 -0.97167,-0.0732 -1.34765,-0.21484 -0.38086,-0.13184 -0.65917,-0.32715 -0.83985,-0.58594 -0.18553,-0.24902 -0.27343,-0.54198 -0.27343,-0.87891 0,-0.10737 0.005,-0.21484 0.0195,-0.33202 z m 1.38671,-3.45704 c 0,0.44434 0.039,0.77637 0.11712,0.9961 0.12697,0.3125 0.30274,0.55664 0.52735,0.72265 0.21973,0.1709 0.47364,0.25391 0.76172,0.25391 0.35156,0 0.70312,-0.12212 1.05468,-0.3711 0.36134,-0.25879 0.6543,-0.65429 0.87892,-1.1914 0.23437,-0.53222 0.35156,-1.04004 0.35156,-1.52344 0,-0.53222 -0.15136,-0.95703 -0.44923,-1.26953 -0.30272,-0.32227 -0.66406,-0.48828 -1.09375,-0.48828 -0.27343,0 -0.54198,0.0732 -0.80077,0.21484 -0.24903,0.14649 -0.4834,0.36621 -0.70313,0.66406 -0.20996,0.30274 -0.3711,0.65919 -0.48828,1.07423 -0.10738,0.40527 -0.15625,0.71288 -0.15625,0.91796 z m 0,0"
       id="path4018"
       style="fill:#000000;fill-opacity:1;stroke:none" />
    <path
       d="m 444.51816,620.60637 1.07423,0.11713 c -0.15625,0.53711 -0.51758,1.04492 -1.07423,1.52343 -0.54687,0.4834 -1.20605,0.72267 -1.97265,0.72267 -0.4834,0 -0.92774,-0.11225 -1.32812,-0.33204 -0.40528,-0.23438 -0.71289,-0.55664 -0.91798,-0.97656 -0.20995,-0.42969 -0.3125,-0.9082 -0.3125,-1.44532 0,-0.71288 0.16114,-1.40625 0.48829,-2.07031 0.32226,-0.66406 0.74707,-1.15234 1.26952,-1.46484 0.51759,-0.32226 1.08399,-0.48828 1.69923,-0.48828 0.7666,0 1.37695,0.24415 1.83594,0.72266 0.46875,0.46875 0.70312,1.12305 0.70312,1.95312 0,0.3125 -0.0292,0.63965 -0.0781,0.97657 l -4.76563,0 c -0.0292,0.13183 -0.039,0.24902 -0.039,0.35156 0,0.60059 0.13671,1.06445 0.41015,1.38671 0.28321,0.3125 0.62989,0.46875 1.03516,0.46875 0.37598,0 0.74708,-0.12212 1.11328,-0.37109 0.36134,-0.24413 0.64942,-0.60547 0.85937,-1.07422 z m -3.20312,-1.60156 3.63281,0 c 0,-0.11713 0,-0.20019 0,-0.2539 0,-0.54688 -0.13671,-0.96191 -0.41015,-1.25 -0.27344,-0.29785 -0.63476,-0.44923 -1.07423,-0.44923 -0.46875,0 -0.89843,0.16603 -1.28906,0.48829 -0.39062,0.32715 -0.6787,0.81543 -0.85937,1.46484 z m 0,0"
       id="path4022"
       style="fill:#000000;fill-opacity:1;stroke:none" />
    <path
       d=""
       id="path4026"
       style="fill:#000000;fill-opacity:1;stroke:none" />
    <path
       d="m 450.34907,619.92278 1.17188,-0.11712 -0.0195,0.3125 c 0,0.35156 0.0781,0.67382 0.23437,0.95702 0.16602,0.28809 0.43458,0.50782 0.80078,0.66407 0.36134,0.15625 0.80079,0.23437 1.3086,0.23437 0.71289,0 1.25976,-0.15625 1.64062,-0.46875 0.37598,-0.3125 0.5664,-0.66894 0.5664,-1.07421 0,-0.2832 -0.10737,-0.54688 -0.3125,-0.78125 -0.19531,-0.21973 -0.75195,-0.52735 -1.66015,-0.91798 -0.70312,-0.3125 -1.18652,-0.54687 -1.44531,-0.70312 -0.40528,-0.25879 -0.70312,-0.54688 -0.89844,-0.85938 -0.18555,-0.3125 -0.27343,-0.66893 -0.27343,-1.07421 0,-0.4541 0.12212,-0.86426 0.37108,-1.23047 0.2588,-0.37598 0.62989,-0.66407 1.11329,-0.85938 0.47851,-0.19531 1.02539,-0.29296 1.64063,-0.29296 0.72753,0 1.33788,0.12695 1.83593,0.37109 0.50782,0.24902 0.86914,0.57617 1.09375,0.97656 0.23438,0.40527 0.35157,0.79102 0.35157,1.15235 0,0.039 -0.01,0.10737 -0.0195,0.19531 l -1.15234,0.0976 c 0,-0.25879 -0.0195,-0.45897 -0.0586,-0.60546 -0.0781,-0.24414 -0.20995,-0.4541 -0.39062,-0.625 -0.17089,-0.16601 -0.40526,-0.30274 -0.70313,-0.41016 -0.30272,-0.1025 -0.63476,-0.15625 -0.99609,-0.15625 -0.65429,0 -1.16211,0.14648 -1.52343,0.42968 -0.27344,0.23438 -0.41016,0.53712 -0.41016,0.89844 0,0.22461 0.0489,0.42481 0.15625,0.60548 0.11712,0.1709 0.32227,0.33202 0.625,0.48827 0.21973,0.11713 0.72266,0.35156 1.50391,0.70313 0.64941,0.28808 1.09863,0.51758 1.34765,0.6836 0.32227,0.20996 0.5713,0.46875 0.74219,0.78125 0.16602,0.30273 0.25391,0.64452 0.25391,1.03515 0,0.49805 -0.15137,0.94727 -0.44923,1.34766 -0.28807,0.40527 -0.69335,0.72265 -1.21093,0.95702 -0.52245,0.21974 -1.11328,0.33204 -1.77734,0.33204 -1.01563,0 -1.85059,-0.21972 -2.5,-0.66406 -0.63965,-0.43945 -0.95704,-1.23535 -0.95704,-2.38281 z m 0,0"
       id="path4030"
       style="fill:#000000;fill-opacity:1;stroke:none" />
    <path
       d="m 462.74622,620.60637 1.07423,0.11713 c -0.15625,0.53711 -0.51758,1.04492 -1.07423,1.52343 -0.54687,0.4834 -1.20605,0.72267 -1.97265,0.72267 -0.4834,0 -0.92774,-0.11225 -1.32812,-0.33204 -0.40528,-0.23438 -0.71289,-0.55664 -0.91798,-0.97656 -0.20995,-0.42969 -0.3125,-0.9082 -0.3125,-1.44532 0,-0.71288 0.16114,-1.40625 0.48829,-2.07031 0.32226,-0.66406 0.74708,-1.15234 1.26953,-1.46484 0.51758,-0.32226 1.08398,-0.48828 1.69922,-0.48828 0.7666,0 1.37695,0.24415 1.83594,0.72266 0.46875,0.46875 0.70312,1.12305 0.70312,1.95312 0,0.3125 -0.0292,0.63965 -0.0781,0.97657 l -4.76563,0 c -0.0292,0.13183 -0.039,0.24902 -0.039,0.35156 0,0.60059 0.13672,1.06445 0.41015,1.38671 0.28322,0.3125 0.62989,0.46875 1.03516,0.46875 0.37598,0 0.74708,-0.12212 1.11328,-0.37109 0.36134,-0.24413 0.64943,-0.60547 0.85938,-1.07422 z m -3.20312,-1.60156 3.63281,0 c 0,-0.11713 0,-0.20019 0,-0.2539 0,-0.54688 -0.13671,-0.96191 -0.41015,-1.25 -0.27344,-0.29785 -0.63476,-0.44923 -1.07422,-0.44923 -0.46875,0 -0.89844,0.16603 -1.28907,0.48829 -0.39062,0.32715 -0.6787,0.81543 -0.85937,1.46484 z m 0,0"
       id="path4034"
       style="fill:#000000;fill-opacity:1;stroke:none" />
    <path
       d="m 464.73246,622.81341 1.36719,-6.48438 0.97656,0 -0.27344,1.32813 c 0.32228,-0.50781 0.64454,-0.87891 0.95704,-1.11329 0.32226,-0.23437 0.6543,-0.35156 0.99609,-0.35156 0.21974,0 0.48828,0.0781 0.80078,0.23437 l -0.44922,1.01563 c -0.18554,-0.12695 -0.39062,-0.19531 -0.625,-0.19531 -0.39062,0 -0.79101,0.21485 -1.1914,0.64453 -0.40527,0.42969 -0.72266,1.20605 -0.95704,2.32422 l -0.54687,2.59766 -1.05469,0 z m 0,0"
       id="path4038"
       style="fill:#000000;fill-opacity:1;stroke:none" />
    <path
       d="m 470.41595,622.81341 -1.05469,-6.48438 1.07423,0 0.54687,3.57422 c 0.0635,0.39062 0.1416,1.03027 0.23438,1.91406 0.20507,-0.46875 0.47363,-0.99609 0.80077,-1.58203 l 2.16798,-3.90625 1.17187,0 -3.71094,6.48438 -1.23047,0 z m 0,0"
       id="path4042"
       style="fill:#000000;fill-opacity:1;stroke:none" />
    <path
       d="m 476.42892,615.1181 0.2539,-1.25 1.09375,0 -0.2539,1.25 -1.09375,0 z m -1.6211,7.69531 1.34767,-6.48438 1.11327,0 -1.34765,6.48438 -1.11329,0 z m 0,0"
       id="path4046"
       style="fill:#000000;fill-opacity:1;stroke:none" />
    <path
       d="m 482.01399,620.45012 1.11327,0.11713 c -0.27344,0.81055 -0.67382,1.41602 -1.1914,1.81641 -0.50781,0.39062 -1.08886,0.58594 -1.73829,0.58594 -0.70312,0 -1.27928,-0.22462 -1.71875,-0.6836 -0.42968,-0.46875 -0.64452,-1.10352 -0.64452,-1.91407 0,-0.71288 0.13671,-1.41112 0.41015,-2.08983 0.28321,-0.68848 0.68849,-1.21094 1.21094,-1.5625 0.51758,-0.35157 1.11817,-0.52735 1.79687,-0.52735 0.68849,0 1.23536,0.19531 1.64063,0.58593 0.41505,0.39063 0.625,0.91309 0.625,1.5625 l -1.09375,0.0586 c 0,-0.40038 -0.11713,-0.72266 -0.35157,-0.95703 -0.23437,-0.23438 -0.54198,-0.35157 -0.91796,-0.35157 -0.44434,0 -0.83007,0.14649 -1.15235,0.42969 -0.32714,0.27344 -0.58594,0.69825 -0.78125,1.26954 -0.18554,0.57617 -0.27344,1.12792 -0.27344,1.66015 0,0.54687 0.12213,0.9668 0.3711,1.25 0.24414,0.27344 0.54688,0.41016 0.89844,0.41016 0.36133,0 0.70801,-0.13672 1.03515,-0.41016 0.32228,-0.27344 0.57618,-0.68848 0.76173,-1.25 z m 0,0"
       id="path4050"
       style="fill:#000000;fill-opacity:1;stroke:none" />
    <path
       d="m 488.37851,620.60637 1.07422,0.11713 c -0.15625,0.53711 -0.51757,1.04492 -1.07422,1.52343 -0.54687,0.4834 -1.20605,0.72267 -1.97265,0.72267 -0.4834,0 -0.92774,-0.11225 -1.32813,-0.33204 -0.40527,-0.23438 -0.71288,-0.55664 -0.91797,-0.97656 -0.20995,-0.42969 -0.3125,-0.9082 -0.3125,-1.44532 0,-0.71288 0.16114,-1.40625 0.48829,-2.07031 0.32226,-0.66406 0.74707,-1.15234 1.26952,-1.46484 0.51759,-0.32226 1.08399,-0.48828 1.69923,-0.48828 0.7666,0 1.37695,0.24415 1.83593,0.72266 0.46875,0.46875 0.70313,1.12305 0.70313,1.95312 0,0.3125 -0.0293,0.63965 -0.0781,0.97657 l -4.76562,0 c -0.0293,0.13183 -0.039,0.24902 -0.039,0.35156 0,0.60059 0.13671,1.06445 0.41015,1.38671 0.28321,0.3125 0.62989,0.46875 1.03516,0.46875 0.37598,0 0.74708,-0.12212 1.11328,-0.37109 0.36134,-0.24413 0.64942,-0.60547 0.85937,-1.07422 z m -3.20312,-1.60156 3.63281,0 c 0,-0.11713 0,-0.20019 0,-0.2539 0,-0.54688 -0.13672,-0.96191 -0.41015,-1.25 -0.27344,-0.29785 -0.63476,-0.44923 -1.07423,-0.44923 -0.46875,0 -0.89843,0.16603 -1.28906,0.48829 -0.39062,0.32715 -0.6787,0.81543 -0.85937,1.46484 z m 0,0"
       id="path4054"
       style="fill:#000000;fill-opacity:1;stroke:none" />
  </g>
</svg>
