<svg xmlns="http://www.w3.org/2000/svg" xmlns:xlink="http://www.w3.org/1999/xlink" version="1.1" id="layer" x="0px" y="0px" style="enable-background:new 0 0 652 652;" xml:space="preserve" viewBox="26.49 229.6 600.21 192.9">
<style type="text/css">
	.st0{fill:#00C81E;}
</style>
<path class="st0" d="M582.9,388.5l0.3-1.3c2.1-7.5,8.5-12.4,16-12.4c8.3,0,13.9,4.5,15.3,12.5l0.2,1.2H582.9z M600.2,365.3  c-16.2,0-28.3,12.3-28.3,28.6c0,16.3,12.3,28.6,28.6,28.6c8.6,0,16.8-3.4,22-8.9l-7.1-7.6c-2.5,2.5-7.5,6.1-14.9,6.1  c-9.1,0-16.1-5.8-17.4-14.5l-0.2-1.2h43.8V394C625.7,376.2,615.6,365.3,600.2,365.3"/>
<path class="st0" d="M299.5,388.5l0.3-1.3c2.1-7.5,8.5-12.4,16-12.4c8.3,0,13.9,4.5,15.3,12.5l0.2,1.2H299.5z M316.7,365.3  c-16.2,0-28.3,12.3-28.3,28.6c0,16.3,12.3,28.6,28.6,28.6c8.6,0,16.8-3.4,22-8.9l-7.1-7.6c-2.5,2.5-7.5,6.1-14.9,6.1  c-9.1,0-16.1-5.8-17.4-14.5l-0.2-1.2h43.8V394C342.3,376.2,332.2,365.3,316.7,365.3"/>
<path class="st0" d="M505.6,341c-4.3,0-7.7,3.5-7.7,7.7c0,4.3,3.5,7.8,7.7,7.8c4.3,0,7.8-3.5,7.8-7.8  C513.4,344.5,509.9,341,505.6,341"/>
<rect x="352.8" y="342.2" class="st0" width="10.6" height="79.2"/>
<rect x="500.3" y="366.1" class="st0" width="10.6" height="55.3"/>
<polygon class="st0" points="521.9,366.1 521.9,375.4 552.2,375.4 521.9,417.6 521.9,421.4 567.5,421.4 567.5,412.2 537,412.2  567.5,369.8 567.5,366.1 "/>
<path class="st0" d="M478.4,383.5l0.2,0.2v20.1l-0.2,0.2c-3.4,5-9.5,8.2-16.1,8.2c-10.2,0-17.6-7.8-17.6-18.5  c0-10.7,7.4-18.5,17.6-18.5C468.9,375.3,475.1,378.4,478.4,383.5 M433.8,393.8c0,16.3,12.2,28.6,28.4,28.6c5.7,0,10.8-1.7,14.7-4.8  l1.6-1.3v5.1h10.6v-55.3h-10.6v5.4l-1.6-1.3c-4-3.3-9.1-4.9-14.7-4.9C446,365.3,433.8,377.5,433.8,393.8"/>
<path class="st0" d="M402.5,365.3c-6.2,0-11.8,2.2-15.3,6l-1.7,1.9v-31h-10.6v79.2h10.6v-35.2v-0.1c2.3-6.9,7.6-10.7,14.6-10.7  c9.1,0,14.1,7.1,14.1,13.8v32.3h10.6v-32.6C424.8,374.6,416,365.3,402.5,365.3"/>
<path class="st0" d="M240.4,411H227v-58.5h13.5c17.4,0,30.1,12.3,30.1,29.2C270.5,398.7,257.9,411,240.4,411 M240.4,342.2h-24.8  v79.2h24.8c23.8,0,41.6-17,41.6-39.6S264.2,342.2,240.4,342.2"/>
<rect x="421.8" y="244.5" class="st0" width="10.6" height="79.2"/>
<path class="st0" d="M235.8,295.5l14-34.9l13.9,34.9H235.8z M245.4,244.5l-32.6,79.2h12.1l7.3-18.1h35.3l7.3,18.1h12.2l-32.6-79.2  C254.3,244.5,245.4,244.5,245.4,244.5z"/>
<path class="st0" d="M324.2,267.7c-6.2,0-11.8,2.2-15.3,6l-1.7,1.9v-31h-10.6v79.2h10.6v-35.2l0.1-0.1c2.3-6.9,7.6-10.7,14.6-10.7  c9.1,0,14.1,7.1,14.1,13.8v32.3h10.6v-32.6C346.4,276.9,337.6,267.7,324.2,267.7"/>
<path class="st0" d="M384.1,314.6c-10.3,0-17.7-7.8-17.7-18.5s7.5-18.5,17.7-18.5c10.1,0,17.7,8,17.7,18.5  C401.9,306.8,394.2,314.6,384.1,314.6 M384.1,267.7c-16.3,0-28.7,12.3-28.7,28.6c0,16.3,12.3,28.6,28.7,28.6  c16.3,0,28.7-12.3,28.7-28.6C412.8,279.9,400.5,267.7,384.1,267.7"/>
<path class="st0" d="M486,286.2v20.1l-0.2,0.2c-3.4,5-9.5,8.2-16.1,8.2c-10.2,0-17.6-7.8-17.6-18.5s7.4-18.5,17.6-18.5  c6.5,0,12.7,3.2,16.1,8.2L486,286.2z M469.7,267.7c-16.2,0-28.4,12.3-28.4,28.6c0,16.3,12.2,28.6,28.4,28.6c5.7,0,10.8-1.7,14.7-4.8  l1.6-1.3v5.1h10.6v-79.3H486v29.3l-1.6-1.3C480.4,269.4,475.3,267.7,469.7,267.7"/>
<path class="st0" d="M100.7,239.8c2.8,0,5.1-2.3,5.1-5.1s-2.3-5.1-5.3-5.1c-2.8,0-5.1,2.3-5.1,5.1  C95.5,237.5,97.8,239.8,100.7,239.8"/>
<path class="st0" d="M100.7,239.8c2.8,0,5.1-2.3,5.1-5.1s-2.3-5.1-5.3-5.1c-2.8,0-5.1,2.3-5.1,5.1  C95.5,237.5,97.8,239.8,100.7,239.8"/>
<path class="st0" d="M63.3,266.7h10.4c0,0-1.7-1.7-8.1-8.5c-3.7-3.9-4-6.9,0.6-6.9h1.1l5.3-7.9c0,0-4.5-0.1-6.4-0.1  c-12.4,0-14.6,12.2-8.4,18.1C62.5,265.7,63.3,266.7,63.3,266.7"/>
<path class="st0" d="M63.3,266.7h10.4c0,0-1.7-1.7-8.1-8.5c-3.7-3.9-4-6.9,0.6-6.9h1.1l5.3-7.9c0,0-4.5-0.1-6.4-0.1  c-12.4,0-14.6,12.2-8.4,18.1C62.5,265.7,63.3,266.7,63.3,266.7"/>
<path class="st0" d="M135.1,251c4.6,0,4.3,3,0.6,6.9c-6.4,6.8-8,8.5-8,8.5h10.4c0,0,0.9-0.9,5.6-5.5c6.2-5.9,3.9-18.1-8.4-18.1  c-2,0-6.4,0.2-6.4,0.2l5.3,7.9H135.1z"/>
<path class="st0" d="M135.1,251c4.6,0,4.3,3,0.6,6.9c-6.4,6.8-8,8.5-8,8.5h10.4c0,0,0.9-0.9,5.6-5.5c6.2-5.9,3.9-18.1-8.4-18.1  c-2,0-6.4,0.2-6.4,0.2l5.3,7.9H135.1z"/>
<polygon class="st0" points="96.8,262.8 100.8,266.2 104.7,262.7 104.6,243.1 96.7,243.1 "/>
<polygon class="st0" points="96.8,262.8 100.8,266.2 104.7,262.7 104.6,243.1 96.7,243.1 "/>
<path class="st0" d="M163.5,347.9c2,9.5,1.4,18.9-1.9,28.2c-4.1,11.4-10.4,19-18.3,22c-1.8,0.6-5,1.7-9.1,1.8c-2.6,0-6.1-0.9-8.3-2  c-1.3-0.5-3.9-1.8-3.9-1.8c-7-3.9-17-11.8-16.9-17c0-1.8,4.1-4.7,7.6-4.8c4.8,0,8.7-4,8.7-8.8v-0.4l-1.8-7.7l-0.1-0.2  c-1.3-4.2-4.5-18.5,6.6-24.9l9.7-4.6l-3.5-7.3l-9.9,4.7l-0.3,0.1c-11,6.3-14.9,19-10.5,34.2l1.5,6.5c-0.1,0.2-0.3,0.4-0.6,0.4  c-3.3,0-6.9,1.3-9.9,3.4c-0.6,0.4-1.2,0.8-1.7,1.4c-3.3-2.9-8-4.6-11.7-4.5c-0.3,0-0.5-0.2-0.6-0.4l1.5-6.5  c4.3-15.1,0.3-27.8-10.8-34.1l-10.1-4.7l-3.4,7.3l9.7,4.5c11.1,6.3,8.1,20.6,6.8,24.9l-1.8,7.9v0.4c0,4.8,4,8.7,8.8,8.7  c3.4,0,7.6,2.8,7.6,4.7c0.1,5.3-9.8,13.1-16.8,17.1c-0.6,0.3-1.4,0.7-2,1.1c-2.3,1.4-5.8,2.8-9.9,2.8c-1.1,0-4.8,0.1-9.6-1.7  c-7.9-3-14.4-10.5-18.5-21.9c-4-10.8-4.3-21.9-0.9-32.9c0.9-3.4,3.3-8.3,3.2-8.4c5.1-11,13.7-21.3,24.6-30.1  c0.2-0.1,16.4-12.7,29.8-21.6l-18.3-12.4H67.3c0,0-0.9,0-1.5,0l0,0l0,0c-10.8,1.1-20.3,5.1-27.8,12.4c-7.7,7-12.3,20.2-11.4,32.8  c0.4,5.4,1.7,10.3,3.8,14.9c1.3-2.5,2.9-5.8,5.1-9.6c-0.5-2.1-0.8-4.1-0.9-6c-0.7-10.1,2.8-20.9,8.7-26.3c6.3-6,14.1-9.4,23-10.3  L89,279c-12.9,8.8-26.8,19.7-27,19.8c-9,7.3-16.5,15.3-22,24.2c-3.5,5.8-6.8,13.2-6.7,13.3c-5.5,14.3-5.7,29.1-0.6,43  c6.3,17.2,16.1,24,23.2,26.6c3.5,1.3,7.3,1.9,11,1.9c5.8,0,10.8-1.9,10.7-1.9c1.7-0.6,4.8-1.8,6.4-2.7l0,0c1.5-0.8,11.4-6.5,16.9-14  c5.6,7.3,15.1,12.7,16.9,13.8c0,0,4.3,2.5,7.8,3.6c3.9,1.1,8.1,1.1,9.5,1.1c3.8,0,7.5-0.7,11-2c7.1-2.7,16.9-9.6,23-26.8  c4.4-12.3,4.6-25.2,0.8-37.9C168.3,343,166.2,345.4,163.5,347.9"/>
<path class="st0" d="M163.5,347.9c2,9.5,1.4,18.9-1.9,28.2c-4.1,11.4-10.4,19-18.3,22c-1.8,0.6-5,1.7-9.1,1.8c-2.6,0-6.1-0.9-8.3-2  c-1.3-0.5-3.9-1.8-3.9-1.8c-7-3.9-17-11.8-16.9-17c0-1.8,4.1-4.7,7.6-4.8c4.8,0,8.7-4,8.7-8.8v-0.4l-1.8-7.7l-0.1-0.2  c-1.3-4.2-4.5-18.5,6.6-24.9l9.7-4.6l-3.5-7.3l-9.9,4.7l-0.3,0.1c-11,6.3-14.9,19-10.5,34.2l1.5,6.5c-0.1,0.2-0.3,0.4-0.6,0.4  c-3.3,0-6.9,1.3-9.9,3.4c-0.6,0.4-1.2,0.8-1.7,1.4c-3.3-2.9-8-4.6-11.7-4.5c-0.3,0-0.5-0.2-0.6-0.4l1.5-6.5  c4.3-15.1,0.3-27.8-10.8-34.1l-10.1-4.7l-3.4,7.3l9.7,4.5c11.1,6.3,8.1,20.6,6.8,24.9l-1.8,7.9v0.4c0,4.8,4,8.7,8.8,8.7  c3.4,0,7.6,2.8,7.6,4.7c0.1,5.3-9.8,13.1-16.8,17.1c-0.6,0.3-1.4,0.7-2,1.1c-2.3,1.4-5.8,2.8-9.9,2.8c-1.1,0-4.8,0.1-9.6-1.7  c-7.9-3-14.4-10.5-18.5-21.9c-4-10.8-4.3-21.9-0.9-32.9c0.9-3.4,3.3-8.3,3.2-8.4c5.1-11,13.7-21.3,24.6-30.1  c0.2-0.1,16.4-12.7,29.8-21.6l-18.3-12.4H67.3c0,0-0.9,0-1.5,0l0,0l0,0c-10.8,1.1-20.3,5.1-27.8,12.4c-7.7,7-12.3,20.2-11.4,32.8  c0.4,5.4,1.7,10.3,3.8,14.9c1.3-2.5,2.9-5.8,5.1-9.6c-0.5-2.1-0.8-4.1-0.9-6c-0.7-10.1,2.8-20.9,8.7-26.3c6.3-6,14.1-9.4,23-10.3  L89,279c-12.9,8.8-26.8,19.7-27,19.8c-9,7.3-16.5,15.3-22,24.2c-3.5,5.8-6.8,13.2-6.7,13.3c-5.5,14.3-5.7,29.1-0.6,43  c6.3,17.2,16.1,24,23.2,26.6c3.5,1.3,7.3,1.9,11,1.9c5.8,0,10.8-1.9,10.7-1.9c1.7-0.6,4.8-1.8,6.4-2.7l0,0c1.5-0.8,11.4-6.5,16.9-14  c5.6,7.3,15.1,12.7,16.9,13.8c0,0,4.3,2.5,7.8,3.6c3.9,1.1,8.1,1.1,9.5,1.1c3.8,0,7.5-0.7,11-2c7.1-2.7,16.9-9.6,23-26.8  c4.4-12.3,4.6-25.2,0.8-37.9C168.3,343,166.2,345.4,163.5,347.9"/>
<path class="st0" d="M83.5,268.7l25.5,18.3c0.3,0.2,2,1.3,2,1.3c11.7,8,23,16.6,23.1,16.7c9.7,7.5,17.3,16.3,22.7,25.7  c2.2-3.2,3.5-6.6,4.1-8.8c-5.6-8.5-12.9-16.4-21.9-23.3c-0.1-0.1-10.2-7.8-21.2-15.4c-4.6-2.8-18.3-12.1-18.3-12.1  c-6.5-4.2-15.9-12.8-15.9-12.8c-3.5-3.4-3.9-7,0.3-7h8.2v-8h-8.1c-13.1,0.1-15.1,10.9-8,18.6C78.9,264.8,83.5,268.7,83.5,268.7"/>
<path class="st0" d="M83.5,268.7l25.5,18.3c0.3,0.2,2,1.3,2,1.3c11.7,8,23,16.6,23.1,16.7c9.7,7.5,17.3,16.3,22.7,25.7  c2.2-3.2,3.5-6.6,4.1-8.8c-5.6-8.5-12.9-16.4-21.9-23.3c-0.1-0.1-10.2-7.8-21.2-15.4c-4.6-2.8-18.3-12.1-18.3-12.1  c-6.5-4.2-15.9-12.8-15.9-12.8c-3.5-3.4-3.9-7,0.3-7h8.2v-8h-8.1c-13.1,0.1-15.1,10.9-8,18.6C78.9,264.8,83.5,268.7,83.5,268.7"/>
<path class="st0" d="M119.9,408.7c-4.8,4-12.3,5.7-18.8,5.8c-6.4-0.1-13.7-1.7-18.5-5.4c-2.2,0.8-5.5,2-8.7,2.7  c2.9,3.6,7,6.3,12.3,8.2c5.4,1.9,10.7,2.4,14.2,2.5l0,0c0.3,0,0.5,0,0.8,0s0.6,0,0.9,0l0,0c3.5-0.1,8.8-0.7,14.2-2.6  c5.3-1.9,9.4-4.7,12.3-8.4C125,410.7,121.9,409.5,119.9,408.7"/>
<path class="st0" d="M119.9,408.7c-4.8,4-12.3,5.7-18.8,5.8c-6.4-0.1-13.7-1.7-18.5-5.4c-2.2,0.8-5.5,2-8.7,2.7  c2.9,3.6,7,6.3,12.3,8.2c5.4,1.9,10.7,2.4,14.2,2.5l0,0c0.3,0,0.5,0,0.8,0s0.6,0,0.9,0l0,0c3.5-0.1,8.8-0.7,14.2-2.6  c5.3-1.9,9.4-4.7,12.3-8.4C125,410.7,121.9,409.5,119.9,408.7"/>
<path class="st0" d="M163,283c-7.6-6.9-16.7-11-27.2-12.1l-0.9-0.1c-0.5,0-1.5,0-1.5,0l-18.5,0.1c1.9-1.5,3.8-2.9,5.7-4.5  c0,0,0.3-0.1,1.2-0.9c0.8-0.7,2.3-2.5,2.3-2.5c0.4-0.4,0.8-0.9,1.4-1.5c7.3-7.7,5.1-18.5-8-18.5h-8.1v8h8.2c4.4,0,3,3.8,0,7.7  c-4.1,3.6-8.5,6.9-13.2,10.2c5.6,4,11.2,7.6,15.3,10.1l14.9-0.1c8.9,0.8,16.7,4.2,23.1,10.1c5.9,5.4,9.6,16.1,8.9,26.2  c-0.2,3-0.8,6.7-2.2,10.4c-1.5,3.9-4.1,9.1-8.7,12.8l-0.1,0.1c-1.2,1.1-2.3,2-3.7,2.9c-21.1,14.8-22.7,33.7-23.5,43.8  c-0.1,0.8-0.1,1.7-0.2,2.4c0,0.4-0.1,0.9-0.1,1.4c-0.1,1.3-0.2,2.8-0.5,4.4c2,1.1,4.8,2,7.9,1.7c0.3-2.1,0.5-3.9,0.6-5.5  c0-0.4,0.1-0.9,0.1-1.3c0.1-0.8,0.1-1.7,0.2-2.6c0.8-10,2.2-25.2,20-37.8c0.1-0.1,0.3-0.3,0.4-0.4c9.8-7,13.6-15.6,13.6-15.7  c0.1-0.2,0.2-0.3,0.3-0.4c2.4-4.9,3.8-10.4,4.2-16.1C175.4,303.1,170.6,290,163,283"/>
<path class="st0" d="M163,283c-7.6-6.9-16.7-11-27.2-12.1l-0.9-0.1c-0.5,0-1.5,0-1.5,0l-18.5,0.1c1.9-1.5,3.8-2.9,5.7-4.5  c0,0,0.3-0.1,1.2-0.9c0.8-0.7,2.3-2.5,2.3-2.5c0.4-0.4,0.8-0.9,1.4-1.5c7.3-7.7,5.1-18.5-8-18.5h-8.1v8h8.2c4.4,0,3,3.8,0,7.7  c-4.1,3.6-8.5,6.9-13.2,10.2c5.6,4,11.2,7.6,15.3,10.1l14.9-0.1c8.9,0.8,16.7,4.2,23.1,10.1c5.9,5.4,9.6,16.1,8.9,26.2  c-0.2,3-0.8,6.7-2.2,10.4c-1.5,3.9-4.1,9.1-8.7,12.8l-0.1,0.1c-1.2,1.1-2.3,2-3.7,2.9c-21.1,14.8-22.7,33.7-23.5,43.8  c-0.1,0.8-0.1,1.7-0.2,2.4c0,0.4-0.1,0.9-0.1,1.4c-0.1,1.3-0.2,2.8-0.5,4.4c2,1.1,4.8,2,7.9,1.7c0.3-2.1,0.5-3.9,0.6-5.5  c0-0.4,0.1-0.9,0.1-1.3c0.1-0.8,0.1-1.7,0.2-2.6c0.8-10,2.2-25.2,20-37.8c0.1-0.1,0.3-0.3,0.4-0.4c9.8-7,13.6-15.6,13.6-15.7  c0.1-0.2,0.2-0.3,0.3-0.4c2.4-4.9,3.8-10.4,4.2-16.1C175.4,303.1,170.6,290,163,283"/>
<path class="st0" d="M74.7,394.1c-0.3-1.7-0.4-3.4-0.6-4.6c0-0.5-0.1-0.9-0.1-1.4c-0.1-0.7-0.2-1.6-0.2-2.4  c-0.9-10.1-2.7-29-24-43.6c-1.5-0.9-2.7-2-3.9-3c-1.3,3.2-2.1,6.1-2.5,8.3c0.6,0.4,1.2,0.9,1.8,1.4c18.2,12.5,19.5,27.7,20.5,37.7  c0.1,0.9,0.2,1.8,0.2,2.6c0,0.4,0.1,0.8,0.1,1.3c0.1,1.5,0.3,3.4,0.7,5.4C69.9,396,72.6,395.1,74.7,394.1"/>
<path class="st0" d="M74.7,394.1c-0.3-1.7-0.4-3.4-0.6-4.6c0-0.5-0.1-0.9-0.1-1.4c-0.1-0.7-0.2-1.6-0.2-2.4  c-0.9-10.1-2.7-29-24-43.6c-1.5-0.9-2.7-2-3.9-3c-1.3,3.2-2.1,6.1-2.5,8.3c0.6,0.4,1.2,0.9,1.8,1.4c18.2,12.5,19.5,27.7,20.5,37.7  c0.1,0.9,0.2,1.8,0.2,2.6c0,0.4,0.1,0.8,0.1,1.3c0.1,1.5,0.3,3.4,0.7,5.4C69.9,396,72.6,395.1,74.7,394.1"/>
</svg>