<svg xmlns="http://www.w3.org/2000/svg" viewBox="0 0 47.8 39.87"><path fill="#c23054" d="M37.1587 4.7412l2.0556-.249C41.1967 1.9189 42.8325 0 42.8325 0s-2.9736 2.1826-5.6738 4.7412"/><path fill="#c23054" d="M47.8027 34.4582L3.7549 39.8684 0 9.302l44.0527-5.4053z"/><path fill="#FFF" d="M26.5527 37.0652c1.8408-2.1191 3.1006-5.625 2.6758-9.0918L26.8945 8.994l-5.3907.6592 2.2461 17.793c.3614 2.92-.415 5.3711-2.3388 6.8848l2.9785 2.998zm-11.933-2.021l-8.3692 1.0303L3.2818 11.885l8.6474-1.0644c3.3692-.415 6.4698.7226 7.0118 5.161.2685 2.1876-.42 4.5997-2.6416 5.752 2.1289.3711 4.3408 2.0362 4.6972 4.9512.542 4.4092-1.5478 7.7686-6.377 8.3594zm-3.462-19.3018l-1.8798.2295.5664 4.5801 1.9433-.2393c1.46-.1757 1.8848-1.2841 1.7334-2.5341-.1562-1.25-.9423-2.212-2.3632-2.0362zm1.0596 9.2041l-1.8066.2246.6592 5.376 1.875-.2295c1.5283-.1904 2.0459-1.4502 1.8603-2.9443-.1465-1.211-.752-2.6514-2.5879-2.4268m26.4644 7.5727c-2.0215.2442-4.1797-.1221-6.3819-1.0889l1.2354-4.1552c1.2549.6201 3.3154 1.4502 4.7412 1.2744.8594-.1074 1.4014-.6201 1.333-1.1817-.3223-2.6171-7.0264.1025-7.6611-5.0732-.3858-3.1543 1.6162-5.7227 5.1904-6.1621 2.4854-.3027 4.0234.2002 5.752.8643l-1.1133 3.916c-1.2354-.4541-2.2705-.9717-3.4326-.8838-.874.0635-1.6162.459-1.5284 1.1767.3125 2.417 7.1485-.4199 7.8125 5.0245.4102 3.33-2.0068 5.8007-5.9472 6.289m-1.831-27.48c-3.1006 2.9883-5.1075 5.5274-5.1075 5.5274l-2.9248-2.339 2.6416 8.2716.0195.0928s1.9922-4.1162 5.2002-8.6719c.8399-1.1963 1.714-2.3682 2.5342-3.4277l-2.0556.2539zm3.691 6.884c.6933-.083 1.3086.4102 1.3916 1.1133.0927.7129-.3906 1.333-1.0889 1.421-.6885.0878-1.3183-.4005-1.4062-1.1134-.083-.7031.4052-1.333 1.0937-1.4209zm.0195.2002c-.5567.0684-.957.6006-.879 1.1914.0685.6006.5811 1.0156 1.1475.9473.5616-.0635.9522-.5957.879-1.1914-.0782-.5957-.5811-1.0156-1.1426-.9473zm-.0195 1.831l-.2197.0245-.1758-1.4063c.117-.034.2246-.0635.3955-.083.21-.0244.3564 0 .4492.0538.0927.049.1514.1416.166.2783.0244.1807-.0879.3125-.2295.376v.01c.1221.005.2246.1074.2783.3125.0586.2148.1025.293.1319.337l-.2393.0292c-.039-.044-.0879-.166-.1367-.3467-.0586-.1757-.1562-.2343-.337-.21l-.1562.0196zm-.0928-.7812l.166-.0195c.1807-.0244.332-.1074.3125-.2832-.0195-.127-.127-.2392-.376-.205l-.1611.0292z"/></svg>