<?xml version="1.0" encoding="utf-8"?>
<!-- Generator: Adobe Illustrator 26.0.2, SVG Export Plug-In . SVG Version: 6.00 Build 0)  -->
<svg version="1.1" id="Layer_1" focusable="false" xmlns="http://www.w3.org/2000/svg" xmlns:xlink="http://www.w3.org/1999/xlink"
	 x="0px" y="0px" viewBox="0 0 150 52" style="enable-background:new 0 0 150 52;" xml:space="preserve">
<style type="text/css">
	.st0{fill:#E21C11;}
</style>
<path class="st0" d="M0.1,0.7h10.9v8.5h4.9V0.7H27v27.6c0,0,0.7,6.1-2,9.6c-3.3,4.1-9.2,3.5-9.2,3.5V12.9h-4.9v28.5
	c0,0-4,0.6-8.2-2.8C-0.6,36,0.1,28.3,0.1,28.3V0.7L0.1,0.7z M110,40.9v-4.6h-5.9c0,0-1.1,0.4-2.2-0.7c-1.1-1.1-0.9-3.5-0.9-3.5V14.1
	c0,0,0-1.9,1.9-1.9c2.1-0.1,2.5,1.9,2.5,1.9v14c-0.4,2.9-2.9,4-2.9,4s7.7,0.6,10-0.9c2.9-2,3-5.3,3-5.3v-7.4c0-3-1.1-5.1-3.3-7
	c-2.8-2.4-5.5-2.5-8.4-2.6c-1.7-0.1-7.7-0.1-10.7,3.6c-2.4,2.9-2.6,6-2.6,6v12c0,0,0,3.6,2.6,6.6c3.7,4.2,7.8,3.9,7.8,3.9L110,40.9
	L110,40.9z M82.4,0.7L72.1,32.5V0.7H61.8v18.8c1.6,0.8,2.6,2.4,2.6,4.2c0,1.9-1.1,3.4-2.6,4.2v13h2.6c7.7,0,10.9,0.4,15.1-4
	c1.5-1.6,2.9-4.9,2.9-4.9L94.5,0.6L82.4,0.7L82.4,0.7z M55,23.7c0-1.8,1-3.3,2.4-4.1V9.3H47.1v28.1c0,0-3.4,0.3-4.1-0.9
	c-0.7-1.2-0.6-4.3-0.6-4.3V9.3h-11v22.9c0,0,0.4,4.3,2.5,6.4c2.9,2.9,7,2.5,7,2.5H47v10.6h10.4V27.9C56,27,55,25.5,55,23.7z
	 M137.8,40.9v-4.6h-5.9c0,0-1.1,0.4-2.2-0.7c-1.1-1.1-0.9-3.5-0.9-3.5v-18c0,0,0-1.9,1.9-1.9c2.1-0.1,2.5,1.9,2.5,1.9v14
	c-0.4,2.9-2.9,4-2.9,4s7.7,0.6,10-0.9c2.9-2,3-5.3,3-5.3v-7.4c0-3-1.1-5.1-3.3-7c-2.8-2.4-5.5-2.5-8.4-2.6
	c-1.7-0.1-7.7-0.1-10.7,3.6c-2.4,2.9-2.6,6-2.6,6v12c0,0,0,3.6,2.6,6.6c3.7,4.2,7.8,3.9,7.8,3.9H137.8L137.8,40.9z M144.6,35.9
	c-0.5,0.5-0.8,1.1-0.8,1.9s0.3,1.4,0.8,1.9s1.1,0.8,1.9,0.8c0.8,0,1.4-0.3,1.9-0.8c0.5-0.5,0.8-1.1,0.8-1.9c0-0.7-0.3-1.4-0.8-1.9
	c-0.5-0.5-1.1-0.8-1.9-0.8C145.7,35.1,145.1,35.4,144.6,35.9z M148.7,40.1c-0.6,0.6-1.4,0.9-2.2,0.9s-1.6-0.3-2.2-0.9
	c-0.6-0.6-0.9-1.4-0.9-2.2c0-0.9,0.3-1.6,0.9-2.2c0.6-0.6,1.4-0.9,2.2-0.9s1.6,0.3,2.2,0.9c0.6,0.6,0.9,1.4,0.9,2.2
	C149.6,38.7,149.4,39.5,148.7,40.1z M147.1,36.7c-0.1-0.1-0.4-0.1-0.7-0.1h-0.5v1.3h0.6c0.3,0,0.4,0,0.6-0.1
	c0.2-0.1,0.4-0.3,0.4-0.6C147.3,36.9,147.2,36.8,147.1,36.7z M146.4,36.1c0.4,0,0.7,0.1,0.9,0.1c0.4,0.1,0.5,0.4,0.6,0.9
	c0,0.3-0.1,0.6-0.4,0.7c-0.1,0.1-0.3,0.1-0.5,0.1c0.3,0.1,0.5,0.1,0.6,0.4c0.1,0.2,0.2,0.4,0.2,0.6v0.3v0.3v0.2v0.1h-0.6l0,0
	c0,0,0,0,0-0.1v-0.1v-0.3c0-0.4-0.1-0.6-0.4-0.8c-0.1-0.1-0.4-0.1-0.6-0.1h-0.5v1.4h-0.6v-3.4h1.3V36.1z"/>
</svg>
