<svg xmlns="http://www.w3.org/2000/svg" fill-rule="evenodd" viewBox="0 0 150.42 58.75"><g fill-rule="nonzero" fill="none"><path d="M0 14.2521h8.5983v4.5112c1.542-3.392 4.1691-5.0887 7.8781-5.0887 3.8593 0 6.1966 1.6966 7.0108 5.0887 1.476-3.392 4.1386-5.0887 7.9845-5.0887 2.1472 0 3.861.3851 5.1326 1.1594 1.2713.7733 2.1558 1.8316 2.6567 3.173.4987 1.342.7498 3.8694.7498 7.5849V46.848h-9.0944V26.5195c0-2.4268-.1769-4.0047-.5288-4.7352-.3506-.7314-1.13-1.0973-2.3403-1.0973-1.452 0-2.3992.479-2.837 1.4349-.4399.9576-.6575 2.8847-.6575 5.7836v18.9426h-9.094v-20.62c0-2.3192-.1678-3.8213-.497-4.5081-.3309-.6872-1.0824-1.033-2.2553-1.033-1.4511 0-2.4164.5017-2.8945 1.5-.4794.9987-.7193 2.9053-.7193 5.7185v18.9426H0zm57.4222 5.4639c-2.7566 0-4.146 2.3733-4.1661 7.1183h8.3313c.0209-.3829.0307-.6803.0307-.8951 0-4.1485-1.3992-6.2232-4.196-6.2232zm.0388 21.5195c2.6088 0 4.129-1.6764 4.5613-5.0282h8.1232c-1.4347 7.6013-5.723 11.4005-12.8643 11.4005-4.4058 0-7.7515-1.4946-10.039-4.4859-2.2879-2.9938-3.433-6.997-3.433-12.0128 0-5.6602 1.2135-9.9828 3.641-12.9629 2.4294-2.9818 5.6828-4.4716 9.766-4.4716 3.6782 0 6.753 1.3184 9.2225 3.9508 2.4708 2.6363 3.7068 7.4715 3.7068 14.5056H53.192v1.7954c0 2.9087.3905 4.8515 1.178 5.8347.7856.9815 1.8144 1.4744 3.091 1.4744zM74.7037 14.181H83.82v32.667h-9.1164zm14.6336-.2532h9.1703v31.7066c0 3.3752-.184 5.9088-.554 7.6089-.3705 1.6915-1.2478 3.0348-2.6375 4.0247-1.391.986-3.16 1.482-5.3119 1.482-1.3672 0-3.0071-.1534-4.918-.458v-7.5258c.457.0676.8592.099 1.2115.099 1.3508 0 2.1947-.3382 2.5319-1.007.3406-.6723.5077-2.1647.5077-4.4807zm26.8351 5.7882c-2.7598 0-4.1471 2.3733-4.1668 7.1183h8.331c.0197-.3829.033-.6803.033-.8951 0-4.1485-1.399-6.2232-4.1972-6.2232zm.0368 21.5195c2.6098 0 4.1296-1.6764 4.5637-5.0282h8.1226c-1.4348 7.6013-5.7213 11.4005-12.864 11.4005-4.4036 0-7.7514-1.4946-10.0394-4.4859-2.2885-2.9938-3.4328-6.997-3.4328-12.0128 0-5.6602 1.2143-9.9828 3.6426-12.9629 2.4273-2.9818 5.6798-4.4716 9.768-4.4716 3.6759 0 6.7501 1.3184 9.222 3.9508 2.467 2.6363 3.7036 7.4715 3.7036 14.5056h-16.9548v1.7954c0 2.9087.396 4.8515 1.1784 5.8347.7862.9815 1.8172 1.4744 3.09 1.4744zm16.9913-27.1467h8.0305v7.9445c1.4305-5.5723 3.9828-8.3587 7.6531-8.3587.4466 0 .9585.0534 1.5362.1614v9.0077c-.662-.0844-1.1631-.1305-1.5065-.1305-4.4058 0-6.6078 3.3586-6.6078 10.0785v14.0564h-9.1055z" fill="#dd1321"/><path d="M84.0733 5.0642c0 2.7982-2.3236 5.0651-5.1913 5.0651-2.8676 0-5.1912-2.267-5.1912-5.065C73.6908 2.2672 76.0144 0 78.882 0c2.8677 0 5.1913 2.2674 5.1913 5.0642zm14.6875 0c0 2.7982-2.325 5.0651-5.192 5.0651-2.8668 0-5.1905-2.267-5.1905-5.065C88.3783 2.2672 90.702 0 93.5689 0c2.867 0 5.192 2.2674 5.192 5.0642z" fill="#0a4d8c"/></g></svg>