<?xml version="1.0" encoding="UTF-8"?>
<svg id="SVGRoot" width="500" height="534.34" version="1.1" viewBox="0 0 500 534.33606" xmlns="http://www.w3.org/2000/svg" xmlns:cc="http://creativecommons.org/ns#" xmlns:dc="http://purl.org/dc/elements/1.1/" xmlns:rdf="http://www.w3.org/1999/02/22-rdf-syntax-ns#"><metadata><rdf:RDF><cc:Work rdf:about=""><dc:format>image/svg+xml</dc:format><dc:type rdf:resource="http://purl.org/dc/dcmitype/StillImage"/><dc:title/></cc:Work></rdf:RDF></metadata><g transform="translate(-178.12 -26.582)"><path d="m210.61 510.24-5.8645-3.3816c-6.974-4.1178-10.778-7.1516-10.778-12.032 0-5.4164 4.4381-8.6944 11.571-8.6944 4.7549 0 10.619 2.0755 18.544 6.3265l0.95124 0.64745v-13.955l-0.15687-0.36998c-6.8153-3.474-13.314-5.0649-20.447-5.0649-14.9 0-25.043 8.7166-25.043 21.558 0 10.589 6.8158 16.775 17.277 22.953l6.0228 3.6627c8.5592 5.1093 11.571 8.7092 11.571 14.1 0 6.3487-5.7056 10.803-13.79 10.803-6.4982 0-13.472-2.5084-22.19-8.1061l-0.15687-0.38108v15.983l1.1094 0.64375c6.8157 3.1374 14.107 4.7356 22.032 4.7356 16.96 0 28.214-9.6711 28.214-24.207 0-10.485-5.2309-17.6-18.862-25.532zm103.34 47.812h14.582v-35.954h32.334v-12.82h-32.334v-20.467h33.919v-12.982h-48.502zm72.435-36.575h31.066v-12.875h-31.066v-19.79h33.602v-12.982h-48.026v82.223h48.66v-13.145h-34.236zm245.2-45.647s-7.9244 12.479-18.543 29.139c-0.79271 1.2727-1.4265 2.4048-1.7439 3.1966h-0.15354c-0.31225-0.79174-0.95086-1.9239-1.743-3.1966-11.412-17.899-18.704-29.139-18.704-29.139h-17.593s30.591 44.848 30.591 44.848v37.375h14.9v-37.375c1.5854-2.4196 30.59-44.848 30.59-44.848zm-79.092-2.6971-38.674 84.92h15.85l6.0227-14.281h35.03l6.1804 14.281h15.692l-38.675-84.92zm13.157 58.792h-24.886s6.8161-16.467 11.253-26.66c0.79278-1.7426 1.11-3.918 1.11-3.918h0.15576s0.4752 2.1754 1.1091 3.918c4.5964 10.648 11.255 26.66 11.255 26.66zm-51.355-56.095s-11.095 34.674-14.583 45.814c-0.31522 1.232-0.9495 3.474-1.1092 4.0882h-0.15724c0-0.50686-0.63406-2.8562-1.1096-4.0882-2.6949-7.2996-18.702-48.847-18.702-48.847h-1.269s-15.216 39.95-18.703 48.847c-0.47538 1.4207-1.1103 3.5813-1.1103 4.0882h-0.15576c0-0.50686-0.63479-2.8562-1.1091-4.0882-3.6457-11.403-14.583-45.814-14.583-45.814h-15.533l29.481 85.094h1.4272s16.483-41.03 19.655-49.125c0.47482-1.1469 1.1099-3.6331 1.1099-4.1733h0.15612c0 0.54016 0.63517 2.8784 1.1102 4.1733 2.6948 6.7816 19.655 49.125 19.655 49.125h1.4251l29.482-85.094zm-245.68-2.6971-38.833 84.92h15.85l6.1818-14.281h35.029l6.1817 14.281h15.692l-38.674-84.92zm13.156 58.792h-25.043s6.8157-16.467 11.254-26.66c0.79271-1.7426 1.2682-3.918 1.2682-3.918h0.15686s0.47549 2.1754 1.1097 3.918c4.4378 10.648 11.254 26.66 11.254 26.66z" fill="#231f20" stroke-width="1.585"/><path d="m423.73 356.07c0-79.743-118.51-86.942-118.51-200.46 0-81.404 63.13-121.83 126.26-128.47-6.0914 0-12.183-0.55385-20.489-0.55385-15.505 0-22.704 0.55385-35.441 1.1077-117.95 5.5374-180.53 68.667-184.4 165.58 0 6.0912-1.1076 17.167-1.1076 34.333 0 17.167 0.55382 27.688 1.1076 34.334 3.8764 94.14 63.683 156.72 175.54 165.02 17.721-3.3224 57.038-16.613 57.038-70.882zm207.66-162.81c-3.8766-91.926-60.361-153.39-166.68-164.47-18.828 3.8762-55.93 17.721-55.93 70.883 0 79.742 118.51 86.941 118.51 200.46 0 70.882-53.716 122.38-134.01 128.47 4.9839 0 10.522 0.55385 17.721 0.55385 15.506 0 22.705-0.55385 35.441-1.1077 117.95-5.5374 180.53-68.667 184.96-165.58 0-6.0916 0.55377-17.167 0.55377-34.334 0.55378-17.72 0-28.242-0.55377-34.887z" fill="#d6232a" stroke-width="5.5377"/><path d="m527.28 300.14c0-112.97-117.95-120.72-117.95-200.46 0-53.162 37.102-67.006 55.931-70.883-6.0914-0.55348-12.183-1.1073-18.274-1.6612-5.5377 0-10.522-0.55385-14.952-0.55385-63.13 6.6451-126.26 47.07-126.26 128.47 0 112.97 118.51 120.72 118.51 199.91 0 54.269-39.318 68.113-57.038 71.436 3.3226 0.55385 6.0914 0.55385 9.414 0.55385 6.6452 0.55385 12.183 0.55385 17.721 0.55385 79.742-4.9839 132.9-56.484 132.9-127.37" fill="#fff" stroke-width="5.5377"/><path d="m647.5 541.65h-5.6408v-2.0126h14.505v2.0126h-5.6411v16.523h-2.8204v-16.523zm11.281-2.0126h4.4324l5.2378 14.107 5.238-14.107h4.4321v18.536h-2.8204v-16.116l-6.0436 16.116h-2.0148l-6.0437-16.116v16.116h-2.8204v-18.536z" fill="#231f20" stroke-width="4.0292"/></g></svg>
