<?xml version="1.0" encoding="UTF-8"?>
<svg width="1555.1" height="453.28" version="1.1" viewBox="0 0 1555.1 453.28" xmlns="http://www.w3.org/2000/svg">
 <defs>
  <clipPath id="clipPath10512">
   <path d="m1521.5 283.07h33.594v53.333h-33.594z"/>
  </clipPath>
  <clipPath id="clipPath10523">
   <path d="m1508.2 363.07h46.927v80h-46.927z"/>
  </clipPath>
  <clipPath id="clipPath10534">
   <path d="m-5.6962e-5 -9.9232e-6h134.84v453.28h-134.84z"/>
  </clipPath>
 </defs>
 <g transform="translate(5.6962e-5)">
  <g fill="#dc1e21">
   <path d="m930.73 375.99c-7.7084 0-12.969 4.375-16.146 8.125-3.0208-5.4688-8.0729-8.125-15.365-8.125-5.052 0-9.6353 1.875-13.646 5.5729-0.156-1.0937-0.312-1.8229-0.312-1.875l-0.4172-2.3438h-10.886v60.104h12.76v-40.938c4.3751-5.9375 7.5-9.0104 12.031-9.0104 1.8749 0 6.7186 0 6.7186 13.594v36.354h12.708v-40.938c4.4792-6.0938 7.5522-9.0104 12.083-9.0104 3.2812 0 6.6666 1.875 6.6666 15.833v34.115h12.708v-34.115c0-13.542-2.2395-27.344-18.906-27.344"/>
   <path d="m1003.9 420.89c0-4.0104 2.6042-8.5938 22.031-9.1146v6.3021c-4.7916 5.4687-10.156 8.4375-15.208 8.4375-4.5314 0-6.823-1.9271-6.823-5.625m12.656-44.219c-10.781 0-20.104 4.8958-20.521 5.1042l-2.0834 1.1459 3.2292 9.2708 2.6563-0.9896c0.107 0 8.1771-2.9687 14.948-2.9687 7.3437 0 10.729 1.1979 11.094 12.24-15.677 0.4688-34.688 3.5938-34.688 20.885 0 10 7.6563 16.719 19.063 16.719 6.927 0 12.812-3.2292 16.614-6.0937 0.26 1.7708 0.469 3.0729 0.469 3.125l0.416 2.3437h10.886v-34.948c0-17.865-6.8229-25.833-22.083-25.833"/>
   <path d="m1133.7 376.67c-10.937 0-17.344 4.6354-20.937 8.6458-0.312-2.9688-0.729-5.4167-0.729-5.5729l-0.416-2.3438h-10.886v60.052h12.708v-34.219c0.416-1.7708 3.6978-13.385 20.26-13.385h2.8125v-13.177z"/>
   <path d="m1221.9 403.18 23.386-25.781h-16.302l-19.271 21.25v-48.646h-12.708v87.448h12.708v-20.781l3.6457-4.0104 18.125 24.792h15.573z"/>
   <path d="m1327.7 387.4c5.4167 0 8.3855 5.4167 9.1667 11.458-8.8541 0.2604-16.458 0.7812-22.083 1.4062 2.2396-8.4375 7.8646-12.865 12.917-12.865m22.136 20.156c0-20.104-8.0729-31.615-22.136-31.615-12.864 0-26.51 11.25-26.51 32.083 0 18.646 10.677 30.729 27.24 30.729 11.25 0 18.906-5.0521 19.219-5.2604l1.823-1.25-3.3855-9.0104-2.7084 1.3021c-0.05 0.052-5.2604 2.4479-13.698 2.4479-7.2916 0-14.635-5-15.677-16.094l35.833-0.6251z"/>
   <path d="m1447 423.75-2.7604 1.25c-0.05 0.052-5 2.2917-8.8542 2.2917-2.2396 0-5.3125 0-5.3125-9.6875v-28.906c3.2812 0.3125 6.9792 0.4688 11.042 0.4688h2.7604v-11.823h-13.802v-19.271h-10.104l-0.625 1.9271c-0.05 0.3125-1.979 6.5104-1.979 14.219v3.125h-9.8439v11.823h9.8439v28.438c0 17.5 9.479 21.146 17.396 21.146 6.9271 0 13.542-4.6354 13.802-4.8438l1.7188-1.25z"/>
   <path d="m1534.4 400.05-1.5626-0.41666c-6.7186-2.0313-9.6874-3.1771-9.6874-5.8854 0-3.2292 1.4062-6.25 11.614-6.25 6.9271 0 13.281 1.5625 13.333 1.5625l2.5 0.62493 3.073-8.75-2.2916-1.0937c-0.3654-0.15627-8.5418-3.8542-18.125-3.8542-13.958 0-22.604 6.9271-22.604 18.125 0 12.917 13.49 16.458 20.729 18.385 9.5833 2.3438 11.25 3.9062 11.25 7.1875 0 2.5521 0 7.2917-12.083 7.2917-7.3437 0-14.531-2.6042-14.583-2.6562l-2.448-0.88547-3.6979 8.1771 1.6146 1.3542c0.312 0.20826 7.1354 5.7812 21.198 5.7812 13.437 0 22.448-7.4479 22.448-18.594 0-13.646-9.5833-16.615-20.677-20.104" clip-path="url(#clipPath10523)"/>
   <path d="m40.208 39.427c-27.031 26.979-40.208 58.698-40.208 96.875 0 31.771 5.8333 53.177 28.229 83.646l22.448 26.875c18.073 19.688 39.531 43.281 39.531 70.104 0 28.333-10.208 52.917-30.365 73.073-16.927 16.875-36.979 26.771-59.844 29.479v33.802c32.344-2.7083 59.792-15.677 83.698-39.479 26.979-26.979 40-54.531 40-92.708 0-31.719-10.365-56.875-38.177-84.74l-23.594-26.719c-21.406-20.26-28.333-46.458-28.333-73.281 0-28.385 10.208-52.969 30.365-73.073 16.927-16.927 37.031-26.823 59.844-29.479v-33.854c-32.344 2.7083-59.792 15.677-83.594 39.479" clip-path="url(#clipPath10534)"/>
   <path d="m1549.9 299.84c-3.1772-3.1771-6.9792-4.7916-11.406-4.7916-4.3751-0.052-8.1771 1.5625-11.354 4.7396-3.177 3.1771-4.7916 6.9271-4.7916 11.354s1.6146 8.2292 4.7916 11.406c3.1772 3.1771 6.9792 4.7916 11.354 4.7916 4.4271 0 8.2291-1.5625 11.406-4.7396 3.177-3.1771 4.7394-6.9792 4.7394-11.354 0-4.4271-1.5624-8.2292-4.7394-11.406" clip-path="url(#clipPath10512)"/>
   <path d="m991.3 277.34c-7.4479 5.7292-15.781 10.052-24.792 13.021v-87.135c11.51 0.052 21.875-2.4479 31.146-7.3438 11.51 10.885 17.292 23.594 17.292 38.073 0 17.031-7.8645 31.51-23.646 43.385m-24.792-166.15c8.9062 0 16.51 2.9687 22.864 8.9583 6.25 5.9896 9.4271 13.281 9.4271 21.771 0 8.4375-3.1771 15.729-9.4271 21.667-6.3541 5.9896-13.958 8.9584-22.864 8.9584zm54.583 63.75c6.6667-9.6354 10-20.625 10-33.021 0-16.927-6.3021-31.406-18.906-43.437-12.604-11.979-27.813-17.969-45.677-18.021l-32.292-0.052v245.52c31.198 0.052 57.865-8.9062 79.948-26.823 22.031-17.917 33.073-39.583 33.073-65.104 0-22.552-8.75-42.292-26.146-59.062"/>
   <path d="m1458.8 103.7c-15.833 14.948-23.698 33.021-23.698 54.167 0 17.917 8.0729 34.583 24.219 49.948l11.458 11.042c8.5417 8.8021 12.76 19.219 12.76 31.198 0 12.656-4.6875 23.49-14.219 32.5-9.4271 8.9583-20.833 13.438-34.219 13.438v30.677c22.292 0.052 41.354-7.4479 57.083-22.396 15.833-14.948 23.698-33.021 23.698-54.167 0-17.917-8.0728-34.583-24.219-49.948l-11.51-11.042c-8.4896-8.8021-12.76-19.167-12.76-31.146 0-12.708 4.7395-23.542 14.271-32.552 9.4271-8.9583 20.885-13.437 34.219-13.437v-30.677c-22.292 0-41.354 7.3958-57.083 22.396"/>
   <path d="m1127 229.22v-112.97c9.0624 3.0208 17.396 7.3437 24.896 13.125 15.729 11.979 23.594 26.458 23.594 43.438 0 16.979-7.8645 31.406-23.594 43.385-7.5 5.7292-15.833 10.052-24.896 13.021m80.781-56.354c0-25.469-11.042-47.188-33.073-65.208-22.083-17.969-48.75-26.979-79.948-27.031v245.52l32.24 0.052v-61.406l48.489 61.458 32.292 0.052-57.448-72.969c8.5416-4.1146 16.719-9.2187 24.375-15.469 22.031-17.865 33.073-39.531 33.073-65"/>
   <path d="m1354.9 264.48c0 17.552-15.052 31.875-33.542 31.875-18.542 0-33.594-14.323-33.594-31.875v-122.55c0-17.604 15.052-31.927 33.594-31.927 18.49 0 33.542 14.323 33.542 31.927zm-33.542-185.42c-36.406 0-66.198 28.281-66.198 62.865v122.55c0 34.583 29.792 62.865 66.198 62.865s66.146-28.281 66.146-62.865v-122.55c0-34.583-29.74-62.865-66.146-62.865"/>
   <path d="m352.34 234.22h-32.448v-107.97c0-4.2187 1.5624-7.8125 4.7394-10.833 3.2292-3.0208 7.0314-4.5312 11.458-4.5312 4.4792 0 8.2812 1.5104 11.458 4.5833 3.1772 3.0208 4.7917 6.6146 4.7917 10.833zm18.177-140.57c-9.5312-9.0625-20.99-13.594-34.427-13.646-13.385 0-24.896 4.4792-34.375 13.542-9.5312 9.0625-14.271 19.948-14.271 32.656v200.47l32.448 0.052v-61.667h32.448v61.667l32.448 0.052v-200.42c0-12.76-4.7916-23.646-14.271-32.708"/>
   <path d="m576.67 326.72 81.198 0.104v-30.833l-48.698-0.052v-123.39l48.437 0.052v-30.781l-48.437-0.052v-30.885l48.698 0.104v-30.833l-81.198-0.104z"/>
   <path d="m737.45 229.32v-113.49c9.0626 2.9688 17.396 7.3437 24.948 13.125 15.781 12.031 23.698 26.615 23.698 43.698 0 17.083-7.9167 31.562-23.698 43.594-7.5521 5.7292-15.885 10.104-24.948 13.073m81.146-56.667c0-25.573-11.094-47.396-33.333-65.469-22.136-18.073-48.958-27.135-80.26-27.135v246.67l32.448 0.052v-61.667l48.646 61.667 32.5 0.104-57.812-73.333c8.6458-4.1146 16.823-9.2708 24.479-15.521 22.24-17.969 33.333-39.74 33.333-65.365"/>
   <path d="m432.08 110.89h32.5v215.83l32.448 0.052v-215.83l32.448 0.052v-30.833l-97.396-0.104z"/>
   <path d="m142.4 110.89 32.448 0.052v215.83l32.5 0.052v-215.83h32.396v-30.833l-97.344-0.104z"/>
   <path d="m174.84 406.2c-5.3645 11.198-11.979 22.031-19.792 32.552h663.54v-32.448z"/>
  </g>
 </g>
</svg>
